<svg width="120" height="120" viewBox="0 0 120 120" fill="none" xmlns="http://www.w3.org/2000/svg">
<circle cx="60" cy="60" r="60" fill="#DF4343"/>
<path d="M85.7761 62.1584C85.7779 60.1718 85.2889 58.2155 84.3527 56.4633C83.4165 54.7111 82.062 53.2172 80.4095 52.1144C78.7571 51.0116 76.8579 50.334 74.8806 50.1418C72.9033 49.9495 70.9091 50.2486 69.0752 51.0125C67.2413 51.7764 65.6244 52.9813 64.3682 54.5204C63.112 56.0595 62.2554 57.8849 61.8744 59.8347C61.4935 61.7845 61.5999 63.7981 62.1844 65.6968C62.7689 67.5955 63.8132 69.3205 65.2247 70.7185V83.6034C65.2246 83.8318 65.283 84.0564 65.3941 84.256C65.5053 84.4556 65.6656 84.6234 65.8599 84.7436C66.0541 84.8638 66.2759 84.9323 66.5041 84.9427C66.7323 84.9531 66.9593 84.905 67.1637 84.8029L73.7133 81.5281L80.263 84.8029C80.449 84.8956 80.6539 84.9438 80.8617 84.9437C81.1105 84.9441 81.3543 84.8744 81.5653 84.7426C81.7597 84.6227 81.9203 84.4551 82.0317 84.2557C82.1431 84.0563 82.2017 83.8318 82.202 83.6034V70.7185C83.3349 69.5994 84.2342 68.2664 84.8477 66.797C85.4613 65.3275 85.7769 63.7508 85.7761 62.1584ZM64.3312 62.1584C64.3312 60.3028 64.8814 58.4888 65.9124 56.9459C66.9433 55.403 68.4086 54.2005 70.1229 53.4904C71.8373 52.7803 73.7238 52.5945 75.5437 52.9565C77.3637 53.3185 79.0354 54.2121 80.3475 55.5242C81.6597 56.8363 82.5532 58.5081 82.9152 60.328C83.2773 62.148 83.0915 64.0344 82.3813 65.7488C81.6712 67.4632 80.4687 68.9285 78.9258 69.9594C77.3829 70.9903 75.569 71.5406 73.7133 71.5406C71.225 71.5406 68.8386 70.5521 67.0792 68.7926C65.3197 67.0331 64.3312 64.6467 64.3312 62.1584ZM79.5214 81.4343L74.312 78.8296C74.1261 78.7368 73.9212 78.6885 73.7133 78.6885C73.5056 78.6885 73.3006 78.7368 73.1147 78.8296L67.9053 81.4343V72.7223C69.6842 73.7026 71.6823 74.2167 73.7133 74.2167C75.7444 74.2167 77.7425 73.7026 79.5214 72.7223V81.4343ZM60.757 76.455C60.757 76.8105 60.6158 77.1514 60.3644 77.4028C60.1131 77.6541 59.7722 77.7953 59.4167 77.7953H39.7588C38.9294 77.7953 38.1339 77.4659 37.5474 76.8794C36.9609 76.2929 36.6314 75.4974 36.6314 74.668V46.0747C36.6314 45.2452 36.9609 44.4498 37.5474 43.8633C38.1339 43.2768 38.9294 42.9473 39.7588 42.9473H79.0746C79.904 42.9473 80.6995 43.2768 81.286 43.8633C81.8725 44.4498 82.202 45.2452 82.202 46.0747C82.202 46.4301 82.0608 46.771 81.8094 47.0224C81.5581 47.2738 81.2171 47.415 80.8617 47.415C80.5062 47.415 80.1653 47.2738 79.9139 47.0224C79.6626 46.771 79.5214 46.4301 79.5214 46.0747C79.5214 45.9562 79.4743 45.8425 79.3905 45.7587C79.3067 45.675 79.1931 45.6279 79.0746 45.6279H39.7588C39.6403 45.6279 39.5267 45.675 39.4429 45.7587C39.3591 45.8425 39.312 45.9562 39.312 46.0747V74.668C39.312 74.7864 39.3591 74.9001 39.4429 74.9839C39.5267 75.0677 39.6403 75.1147 39.7588 75.1147H59.4167C59.7722 75.1147 60.1131 75.2559 60.3644 75.5073C60.6158 75.7586 60.757 76.0996 60.757 76.455ZM57.1829 63.9455C57.1829 64.3009 57.0416 64.6419 56.7903 64.8932C56.5389 65.1446 56.198 65.2858 55.8425 65.2858H46.9071C46.5517 65.2858 46.2108 65.1446 45.9594 64.8932C45.708 64.6419 45.5668 64.3009 45.5668 63.9455C45.5668 63.59 45.708 63.2491 45.9594 62.9977C46.2108 62.7464 46.5517 62.6052 46.9071 62.6052H55.8425C56.198 62.6052 56.5389 62.7464 56.7903 62.9977C57.0416 63.2491 57.1829 63.59 57.1829 63.9455ZM57.1829 56.7971C57.1829 57.1526 57.0416 57.4935 56.7903 57.7449C56.5389 57.9962 56.198 58.1375 55.8425 58.1375H46.9071C46.5517 58.1375 46.2108 57.9962 45.9594 57.7449C45.708 57.4935 45.5668 57.1526 45.5668 56.7971C45.5668 56.4417 45.708 56.1008 45.9594 55.8494C46.2108 55.598 46.5517 55.4568 46.9071 55.4568H55.8425C56.198 55.4568 56.5389 55.598 56.7903 55.8494C57.0416 56.1008 57.1829 56.4417 57.1829 56.7971Z" fill="white" stroke="white" stroke-width="0.757895"/>
</svg>
