<svg width="120" height="120" viewBox="0 0 120 120" fill="none" xmlns="http://www.w3.org/2000/svg">
<circle cx="60" cy="60" r="60" fill="#DF4343"/>
<path d="M47.1693 44.5936L41.6562 46.6018C40.2854 47.1011 39.169 48.1244 38.5526 49.4466C37.9361 50.7689 37.8699 52.2818 38.3687 53.6528L47.7773 79.5044C48.0245 80.1835 48.4031 80.8072 48.8914 81.3399C49.3797 81.8727 49.9681 82.304 50.6231 82.6093C51.2782 82.9146 51.9869 83.0878 52.7089 83.1191C53.4309 83.1505 54.152 83.0393 54.831 82.7919L70.1488 76.7451M55.9589 51.65H69.7141M55.9589 57.1521H72.4652M55.9589 62.6542H64.2121M80.7183 70.9074V43.3969C80.7183 41.9376 80.1387 40.5381 79.1068 39.5063C78.075 38.4745 76.6755 37.8948 75.2162 37.8948H53.2079C51.7486 37.8948 50.3491 38.4745 49.3173 39.5063C48.2854 40.5381 47.7058 41.9376 47.7058 43.3969V70.9074C47.7058 72.3666 48.2854 73.7661 49.3173 74.7979C50.3491 75.8298 51.7486 76.4095 53.2079 76.4095H75.2162C76.6755 76.4095 78.075 75.8298 79.1068 74.7979C80.1387 73.7661 80.7183 72.3666 80.7183 70.9074Z" stroke="white" stroke-width="3.15789" stroke-linecap="round" stroke-linejoin="round"/>
</svg>
