<svg width="22" height="22" viewBox="0 0 22 22" fill="none" xmlns="http://www.w3.org/2000/svg">
<path d="M16 5.00002C16.1978 5.00002 16.3911 5.05867 16.5556 5.16855C16.72 5.27843 16.8482 5.43461 16.9239 5.61733C16.9996 5.80006 17.0194 6.00113 16.9808 6.19511C16.9422 6.38909 16.8469 6.56727 16.7071 6.70712C16.5672 6.84698 16.3891 6.94222 16.1951 6.9808C16.0011 7.01939 15.8 6.99958 15.6173 6.9239C15.4346 6.84821 15.2784 6.72004 15.1685 6.55559C15.0586 6.39114 15 6.1978 15 6.00002C15 5.7348 15.1053 5.48045 15.2929 5.29291C15.4804 5.10537 15.7348 5.00002 16 5.00002ZM1.28998 10.78L10.77 1.32002C10.8632 1.21948 10.9761 1.13919 11.1017 1.08414C11.2273 1.02909 11.3629 1.00046 11.5 1.00002H17.5C17.6316 0.999256 17.7621 1.02448 17.8839 1.07425C18.0057 1.12401 18.1165 1.19734 18.21 1.29002L20.71 3.78002C20.8027 3.87346 20.876 3.98427 20.9258 4.10611C20.9755 4.22795 21.0007 4.35841 21 4.49002V10.49C20.9963 10.7548 20.8927 11.0084 20.71 11.2L11.22 20.7C11.0283 20.8828 10.7748 20.9863 10.51 20.99C10.3784 20.9908 10.2479 20.9656 10.1261 20.9158C10.0042 20.866 9.89342 20.7927 9.79998 20.7L1.28998 12.19C1.1973 12.0966 1.12398 11.9858 1.07421 11.8639C1.02445 11.7421 0.999222 11.6116 0.999983 11.48C1.00616 11.2187 1.10956 10.9691 1.28998 10.78ZM10.51 18.59L19 10.09V4.90002L17.1 3.00002H11.92L3.41998 11.49L10.51 18.59Z" fill="white" stroke="white" stroke-width="0.5"/>
<circle cx="15" cy="7" r="2" fill="white"/>
</svg>
