<svg width="120" height="120" viewBox="0 0 120 120" fill="none" xmlns="http://www.w3.org/2000/svg">
<circle cx="60" cy="60" r="60" fill="#DF4343"/>
<path fill-rule="evenodd" clip-rule="evenodd" d="M70.2952 66.9571C70.2952 65.8767 70.7244 64.8405 71.4883 64.0766C72.2523 63.3126 73.2884 62.8835 74.3688 62.8835C75.4492 62.8835 76.4854 63.3126 77.2493 64.0766C78.0133 64.8405 78.4425 65.8767 78.4425 66.9571V84.5362C78.4425 84.8964 78.2994 85.2417 78.0447 85.4964C77.7901 85.751 77.4447 85.8941 77.0846 85.8941C76.7244 85.8941 76.3791 85.751 76.1244 85.4964C75.8698 85.2417 75.7267 84.8964 75.7267 84.5362V66.9571C75.7267 66.597 75.5836 66.2516 75.329 65.9969C75.0743 65.7423 74.7289 65.5992 74.3688 65.5992C74.0087 65.5992 73.6633 65.7423 73.4086 65.9969C73.154 66.2516 73.0109 66.597 73.0109 66.9571V67.4228C73.0109 67.783 72.8679 68.1284 72.6132 68.383C72.3586 68.6377 72.0132 68.7807 71.653 68.7807C71.2929 68.7807 70.9475 68.6377 70.6929 68.383C70.4382 68.1284 70.2952 67.783 70.2952 67.4228V66.9571Z" fill="white"/>
<path fill-rule="evenodd" clip-rule="evenodd" d="M51.6311 49.2313C48.9479 49.2313 46.8052 50.1275 45.3332 51.5628C44.647 52.2297 44.0996 53.0259 43.7228 53.9055C43.3459 54.7851 43.147 55.7306 43.1375 56.6874C43.1253 57.6443 43.3072 58.5936 43.6722 59.4782C44.0372 60.3627 44.5778 61.1641 45.2613 61.8338C46.6775 63.2229 48.7334 64.0988 51.3188 64.1639L52.6427 64.1979V82.183C52.6427 82.5456 53.0311 83.1417 53.9313 83.177C54.8357 83.2123 55.3137 82.6379 55.3544 82.2536L56.6824 69.5995H62.1818L63.5098 82.255C63.5506 82.6379 64.0285 83.2123 64.9329 83.177C65.8332 83.1417 66.2215 82.5456 66.2215 82.183V52.2838L68.1416 53.1569C69.6393 53.8372 70.6129 54.7049 71.2565 55.4857C71.9626 56.3453 72.6334 57.5212 72.8086 58.8139L72.8113 58.841L72.814 58.8628C72.8846 59.558 73.5473 60.1582 74.3973 60.0889C75.2121 60.0238 75.7919 59.3204 75.7321 58.6238C75.6722 58.0922 75.5519 57.5692 75.3736 57.0649C74.98 55.8892 74.3734 54.796 73.584 53.84C71.6042 51.4338 67.98 49.2313 61.5721 49.2313H51.6311ZM43.4376 49.6183C45.4745 47.6331 48.326 46.5156 51.6311 46.5156H61.5708C68.6657 46.5156 73.1101 48.9896 75.6819 52.1141C76.6837 53.3283 77.4533 54.7165 77.9523 56.2095C78.1695 56.8667 78.3651 57.5999 78.4357 58.3794V58.3848C78.6434 60.7298 76.7831 62.6214 74.6146 62.7965C72.3931 62.9744 70.3563 61.4047 70.1146 59.1629C70.0249 58.5328 69.661 57.8226 69.1586 57.2116C69.0877 57.1254 69.0139 57.0416 68.9373 56.9604V82.183C68.9373 84.3353 67.0417 85.8113 65.0402 85.89C63.0441 85.9688 61.0317 84.6598 60.809 82.5361L59.7363 72.3153H59.1279L58.0552 82.5374C57.8325 84.6598 55.8201 85.9688 53.8241 85.8914C51.8225 85.8126 49.9269 84.3353 49.9269 82.183V66.7846C47.313 66.4723 45.0521 65.4336 43.3589 63.7701C42.415 62.8447 41.6682 61.7379 41.1635 60.5162C40.6587 59.2946 40.4064 57.9834 40.4218 56.6616C40.4347 55.347 40.7077 54.0479 41.2251 52.8393C41.7425 51.6307 42.494 50.5365 43.4363 49.6197L43.4376 49.6183ZM52.6427 51.8887V61.5066L51.2251 61.4441C49.4245 61.3626 48.1875 60.7516 47.3891 59.9681C46.9602 59.5427 46.6219 59.035 46.3946 58.4753C46.1673 57.9157 46.0557 57.3158 46.0665 56.7119C46.0703 56.101 46.1949 55.4969 46.4331 54.9344C46.6713 54.3718 47.0183 53.8619 47.4542 53.434C48.2649 52.645 49.4897 52.0394 51.2196 51.9566L52.6427 51.8887ZM49.9269 54.986C49.5869 55.1359 49.2976 55.3814 49.0944 55.6926C48.8912 56.0038 48.7828 56.3674 48.7822 56.739C48.7768 57.2605 48.9683 57.714 49.2915 58.029C49.4191 58.1553 49.6201 58.3101 49.9269 58.4418V54.986ZM59.4321 34.2946C58.3517 34.2946 57.3156 34.7238 56.5516 35.4878C55.7877 36.2517 55.3585 37.2879 55.3585 38.3683C55.3585 39.4487 55.7877 40.4848 56.5516 41.2488C57.3156 42.0127 58.3517 42.4419 59.4321 42.4419C60.5125 42.4419 61.5487 42.0127 62.3126 41.2488C63.0766 40.4848 63.5058 39.4487 63.5058 38.3683C63.5058 37.2879 63.0766 36.2517 62.3126 35.4878C61.5487 34.7238 60.5125 34.2946 59.4321 34.2946ZM52.6427 38.3683C52.6427 36.5676 53.358 34.8407 54.6313 33.5674C55.9045 32.2942 57.6314 31.5789 59.4321 31.5789C61.2328 31.5789 62.9597 32.2942 64.2329 33.5674C65.5062 34.8407 66.2215 36.5676 66.2215 38.3683C66.2215 40.1689 65.5062 41.8958 64.2329 43.1691C62.9597 44.4424 61.2328 45.1577 59.4321 45.1577C57.6314 45.1577 55.9045 44.4424 54.6313 43.1691C53.358 41.8958 52.6427 40.1689 52.6427 38.3683Z" fill="white"/>
</svg>
