<svg width="120" height="120" viewBox="0 0 120 120" fill="none" xmlns="http://www.w3.org/2000/svg">
<circle cx="60" cy="60" r="60" fill="#DF4343"/>
<path d="M52.4821 54.103H55.7242M65.4506 67.0715H68.6927M68.6927 52.4819L52.4821 68.6926M58.3211 38.8326L54.6608 42.4865C54.0609 43.0874 53.2469 43.4256 52.3978 43.4267H46.6333C45.7837 43.4267 44.969 43.7642 44.3682 44.3649C43.7675 44.9656 43.43 45.7804 43.43 46.6299V52.3944C43.429 53.2435 43.0908 54.0575 42.4898 54.6574L38.8327 58.3243C38.2322 58.9249 37.8949 59.7395 37.8949 60.5889C37.8949 61.4382 38.2322 62.2528 38.8327 62.8535L42.4963 66.5139C42.7934 66.8111 43.0291 67.1639 43.1899 67.5522C43.3506 67.9405 43.4334 68.3566 43.4333 68.7769V74.5414C43.4333 76.3116 44.8663 77.7446 46.6365 77.7446H52.401C53.2504 77.7446 54.0642 78.0818 54.664 78.6848L58.3276 82.3452C58.9283 82.9457 59.7429 83.283 60.5922 83.283C61.4416 83.283 62.2562 82.9457 62.8569 82.3452L66.5172 78.6816C67.1177 78.0818 67.9316 77.7448 68.7802 77.7446H74.5447C75.3943 77.7446 76.209 77.4071 76.8098 76.8064C77.4105 76.2057 77.748 75.3909 77.748 74.5414V68.7769C77.748 67.9274 78.0851 67.1137 78.6882 66.5139L82.3485 62.8503C82.949 62.2496 83.2863 61.435 83.2863 60.5856C83.2863 59.7363 82.949 58.9217 82.3485 58.321L78.6849 54.6607C78.0852 54.0602 77.7482 53.2463 77.748 52.3976V46.6331C77.748 45.7836 77.4105 44.9688 76.8098 44.3681C76.209 43.7674 75.3943 43.4299 74.5447 43.4299H68.7802C67.9311 43.4289 67.1171 43.0907 66.5172 42.4897L62.8504 38.8326C62.2497 38.2321 61.4351 37.8948 60.5858 37.8948C59.7364 37.8948 58.9218 38.2321 58.3211 38.8326Z" stroke="white" stroke-width="3.24213"/>
</svg>
