<?xml version="1.0" encoding="UTF-8"?> <svg xmlns="http://www.w3.org/2000/svg" width="179" height="48" viewBox="0 0 179 48" fill="none"><path fill-rule="evenodd" clip-rule="evenodd" d="M22.6105 43.731C21.2971 45.226 19.6416 45.8407 17.6589 45.7047C16.5552 45.6288 15.5964 45.2749 14.7598 44.5657C14.6915 44.5071 14.6253 44.447 14.4988 44.3355C14.9156 44.3866 15.2544 44.4319 15.5931 44.4693C16.4904 44.5679 17.387 44.5927 18.2793 44.4229C19.6208 44.1676 20.6335 43.4386 21.3697 42.2971C21.8696 41.5221 22.3684 40.7434 22.9115 39.9986C24.017 38.4795 25.5678 37.6854 27.3808 37.3232C27.6904 37.261 27.8415 37.2359 27.9134 37.2276C26.7813 38.3651 24.2069 41.7796 23.8246 42.2611C23.4294 42.7585 23.0302 43.2537 22.6105 43.731ZM36.3092 4.44469C36.2085 3.32798 36.105 2.18288 35.9834 0.840332C35.4551 1.19352 35.1908 1.37983 34.9178 1.551C32.2888 3.20107 29.84 5.20823 26.5985 5.61891C25.6128 5.74338 24.7557 5.86709 23.8358 6.00302C23.6883 6.01562 23.5405 6.03142 23.3924 6.05085C23.2179 6.07387 23.046 6.10589 22.877 6.14541C19.6524 6.62481 15.4291 8.76183 11.3054 11.9101C11.2328 11.9612 11.1602 12.0126 11.0889 12.0652C10.8559 12.227 10.5553 12.4331 10.4269 12.5859C9.57703 13.303 8.83147 14.1291 8.17657 15.048C8.06979 15.1983 7.89786 15.3228 7.72952 15.4077C5.92842 16.3183 4.30609 17.4771 2.88548 18.907C1.76128 20.0392 0.79564 21.2821 0.243553 22.8106C-0.179714 23.9848 -0.0768426 25.0443 0.754274 26.0128C1.17651 26.5056 1.71454 26.7415 2.33383 26.8544C2.43415 26.8731 2.54707 26.9691 2.60211 27.0601C3.14443 27.9484 3.65156 28.8591 4.22482 29.7258C4.38128 29.9628 4.71106 30.1167 4.99232 30.2354C5.36347 30.3911 5.64863 30.6202 5.92017 30.9137C6.42042 31.4524 6.94873 31.9696 7.49723 32.4594C8.42291 33.2873 9.5418 33.4589 10.734 33.3287C10.8326 33.3175 10.9304 33.2988 11.112 33.2704C10.2125 32.0257 9.58349 30.7169 9.59283 29.1421C9.17852 29.3456 8.93472 29.6387 8.77393 29.9994C8.60705 30.3728 8.61677 30.7709 8.75883 31.1403C8.89547 31.4991 9.09834 31.8329 9.28715 32.2069C8.22298 31.7592 7.42058 31.0323 6.78945 30.0638C6.87826 30.007 6.96458 29.9441 7.05844 29.8941C8.54088 29.0935 10.124 28.6476 11.8054 28.5238C12.8681 28.4451 13.9283 28.4426 14.9756 28.6336C16.2725 28.8702 17.546 29.1874 18.6116 30.0379C19.1277 30.4498 19.5697 30.9227 19.9225 31.4794C19.9617 31.5413 19.988 31.6117 20.0243 31.6876C19.1104 32.0634 18.3117 32.5745 17.6521 33.2906C17.1608 33.8232 16.8256 34.4504 16.5789 35.1208C16.293 35.8976 16.0448 36.6881 15.7834 37.4728C15.7571 37.5495 15.7503 37.6321 15.7841 37.762C15.8923 37.6972 16.002 37.6343 16.1089 37.5667C17.1119 36.928 18.1451 36.3507 19.2975 36.0181C19.8398 35.8616 20.3933 35.7969 20.9576 35.857C21.2888 35.8919 21.5006 36.0149 21.5891 36.2094C21.1654 36.3026 20.7335 36.3734 20.3156 36.495C19.4223 36.7535 18.6559 37.2538 17.9279 37.8167C17.1637 38.4083 16.4146 39.0189 15.6366 39.5922C15.1817 39.9267 14.7091 40.2525 14.1272 40.3449C13.8503 40.3881 13.5622 40.4068 13.3738 40.1723C13.1731 39.9227 13.2687 39.644 13.4097 39.3872C13.4295 39.3516 13.4435 39.3128 13.4712 39.2488C12.762 38.9003 12.1093 38.5 11.9629 37.6502C12.42 37.8793 12.8627 38.1594 13.345 38.3263C13.8517 38.5021 14.3819 38.3583 14.9141 38.2105C13.3874 37.8256 12.1499 37.0233 11.1864 35.6613C11.0987 36.0037 10.9955 36.2713 10.967 36.5468C10.8919 37.2779 11.1008 37.9533 11.4443 38.5928C11.5011 38.6967 11.5511 38.8064 11.6238 38.8996C11.928 39.2916 12.0172 39.7178 11.9881 40.2198C11.9392 41.0524 12.4362 41.5767 13.2709 41.7022C14.6789 41.9148 15.8787 41.4623 16.9252 40.5482C17.41 40.1245 17.8535 39.6541 18.3426 39.2362C19.0705 38.6154 19.934 38.2464 20.8475 37.9882C20.9169 37.9681 20.9921 37.9663 21.0647 37.9566L21.0766 38.0105C20.8755 38.1303 20.6777 38.2558 20.4735 38.3705C19.4327 38.9524 18.631 39.8019 17.8736 40.6981C17.3335 41.3365 16.7476 41.9202 15.9909 42.3046C15.0238 42.7948 14.0161 42.7847 12.9914 42.542C12.7225 42.4776 12.4592 42.3899 12.1236 42.2942C12.1769 42.6251 12.1995 42.9246 12.2754 43.2102C12.4516 43.8727 12.8055 44.4362 13.3116 44.8981C14.5588 46.0352 16.0027 46.8174 17.6535 47.1677C19.7215 47.6065 21.4873 46.9581 22.9892 45.5328C23.9178 44.6506 24.5939 43.5724 25.2725 42.4935C26.3986 40.7042 28.7521 39.4548 30.7449 38.0292C35.2408 34.8136 40.4225 32.8352 46.0027 35.652C48.604 36.9646 51.4776 36.6273 54.5205 35.712C54.0914 35.5725 53.9317 35.5056 53.7663 35.47C48.3893 34.3069 45.4755 30.8364 44.5429 25.5575C43.8661 21.7255 42.3836 18.3291 39.3353 15.79C38.3089 14.9351 37.1375 14.255 36.0327 13.4947C37.1113 15.0495 38.3164 16.3852 39.3857 17.8212C40.5232 19.3501 40.8739 21.1631 40.9922 23.0447C39.5256 22.9976 38.807 22.9756 38.3355 23.0767C37.5518 22.657 36.7452 22.2729 35.9144 21.9247C32.7308 20.5916 29.4189 19.8798 25.958 19.9529C24.9848 19.9733 24.0163 20.0514 23.0568 20.1977C24.3717 20.2211 25.9624 20.2895 27.4337 20.4502C29.9508 20.7247 32.365 21.3422 34.6718 22.3837C35.572 22.7901 36.4459 23.236 37.2911 23.7237L37.2343 23.7765C37.2972 23.7827 37.3594 23.7902 37.4202 23.7989C38.3988 24.3707 39.3386 24.9993 40.2355 25.6891C40.4559 26.0351 40.6469 26.4127 40.8199 26.8091L39.3256 27.058C36.4081 24.8105 33.1091 23.2432 29.357 22.4837C27.1816 22.0431 25.0071 22.0359 22.8298 22.3128C24.8284 22.308 32.2446 23.5453 36.3866 26.3861C36.829 26.6893 37.2587 27.0051 37.6766 27.3323L35.8788 27.6319L40.7599 30.2077L40.867 30.3271C40.0819 30.4645 39.2986 30.5868 38.5247 30.7173C35.563 27.6032 31.9817 25.468 27.6415 24.5905C26.0735 24.2732 24.491 24.2275 22.9064 24.3455C24.5112 24.4394 28.4432 25.1637 31.0099 26.4135C32.9125 27.3399 34.6218 28.5584 36.0892 30.0627C36.3859 30.367 36.6704 30.6831 36.9473 31.0068C34.5822 31.488 32.35 32.2163 30.4568 33.9268C29.7908 33.1712 29.1873 32.4875 28.5845 31.8041C28.5349 32.2091 28.6687 32.476 28.7478 32.7579C29.043 33.7991 29.106 34.8795 28.7974 35.8181C28.6133 32.7241 25.8354 25.1349 17.3381 25.8888C17.3913 25.9262 17.4467 25.9405 17.501 25.9578C18.2901 26.207 19.1126 26.3836 19.8625 26.7213C21.5413 27.4776 22.7435 28.7018 23.2018 30.5403C23.3218 31.0212 23.3769 31.5186 23.4617 32.0081C23.4347 32.0145 23.4081 32.0199 23.3812 32.026C23.3147 31.8642 23.2452 31.7034 23.1823 31.5398C22.4591 29.647 21.1528 28.3548 19.2345 27.6711C18.1847 27.2975 17.1119 27.0339 16.0089 26.8836C14.4714 26.6746 12.9491 26.6249 11.4098 26.9655C9.30191 27.4327 7.29724 28.1451 5.40695 29.186C5.35267 29.2158 5.23541 29.2075 5.189 29.168C4.39099 28.4832 3.74325 27.6948 3.47427 26.6461C3.44365 26.526 3.35017 26.3897 3.24589 26.3257C2.66937 25.9689 2.51867 25.5453 2.78842 24.926C2.85888 24.7638 2.93336 24.5926 3.04769 24.4631C4.0396 23.34 5.04155 22.2251 6.04172 21.1091C6.13742 21.0023 6.24024 20.9019 6.34024 20.7987C4.05757 21.0613 2.41727 22.2642 1.22037 24.1664C1.1909 23.9657 1.18118 23.7827 1.2157 23.609C1.35381 22.9185 1.65803 22.297 2.04573 21.7147C2.91284 20.4135 4.03026 19.3569 5.28432 18.4398C6.44381 17.5925 7.65113 16.8275 9.07282 16.4762C9.14329 16.4589 9.21809 16.3672 9.24866 16.2928C9.4702 15.7443 9.78131 15.2545 10.1809 14.8193C11.7665 13.0891 13.6593 11.7641 15.7758 10.7852C16.0635 10.6521 16.3516 10.5205 16.6401 10.3899C17.8315 10.0342 19.1151 9.79831 20.1487 9.52786C20.1217 9.88539 20.1013 10.1558 20.0649 10.6201C24.7676 8.96719 29.3315 7.35311 33.6263 4.55077C33.0095 7.807 30.445 9.17902 28.3184 10.9201C29.9094 11.8936 31.4361 11.8652 32.7772 10.7967C33.3933 10.3054 33.9554 9.73214 34.4715 9.13478C35.5587 7.87823 36.8624 7.65917 38.4283 8.57948C37.344 11.0589 35.1282 12.2583 32.6945 13.4483C36.7067 13.8296 41.282 11.8102 43.6384 8.69528C44.407 7.67932 45.3611 7.07441 46.6378 7.01974C47.6071 6.97837 48.5777 6.96254 49.8099 6.92801C45.3791 4.47527 40.8192 4.31701 36.3092 4.44469ZM46.3149 18.766C46.202 19.3181 45.8661 21.3957 45.7776 21.9517C45.5366 23.4619 45.6305 24.9573 46.0584 26.4268C46.5501 28.1139 47.451 29.5654 48.6403 30.845C49.6088 31.8869 50.7094 32.7716 51.9163 33.5186C52.431 33.8376 52.9593 34.1339 53.4905 34.4252C53.2823 34.1584 48.8734 29.1108 49.6938 23.8075C49.6986 23.778 49.7657 23.7338 49.8049 23.7323C50.2663 23.7111 50.7284 23.709 51.1891 23.6773C52.5425 23.5834 53.8742 23.3716 55.1366 22.8494C55.7181 22.6084 56.2525 22.288 56.7071 21.8464C56.9377 21.6226 57.1286 21.368 57.3023 21.0674C56.3644 21.7212 55.3664 22.0657 54.2411 21.9593C53.1028 21.8525 49.9322 21.226 46.5674 18.5787C46.4591 18.4938 46.3458 18.6157 46.3149 18.766ZM12.9925 16.6571C13.6726 16.8168 14.125 17.0145 14.5771 17.0117C16.3354 17.0001 18.0937 16.9013 19.852 16.8502C18.1132 17.9935 16.3782 19.1425 14.6351 20.2787C14.3527 20.4621 14.0146 20.5649 13.7456 20.7635C11.9769 22.0646 11.933 23.2558 13.5809 24.6764C13.7262 24.8019 13.8589 24.9426 14.0506 25.1274C12.2427 24.9648 10.6049 24.1416 9.47525 22.7476C10.4441 21.7817 11.3914 20.743 12.4419 19.823C13.1256 19.2239 13.5788 18.7149 13.0806 17.7616C12.9077 17.4303 13.0098 16.9545 12.9925 16.6571ZM39.1407 13.9421C43.2921 12.8265 46.899 10.993 50.2206 8.52412C50.3001 10.1252 48.654 12.2342 45.9484 14.0608C48.7504 15.1361 52.5446 15.5605 54.9877 15.1293C52.4666 16.3647 49.7844 16.6366 46.9943 16.6571C44.0592 16.6779 41.9316 14.7017 39.1407 13.9421Z" fill="#31312D"></path><path fill-rule="evenodd" clip-rule="evenodd" d="M86.6714 22.7224H75.3701L74.7232 25.38H86.0245L86.6714 22.7224ZM76.3488 18.7016H89.1015C89.9388 18.7016 90.6988 18.8541 91.3848 19.1566C92.0686 19.4594 92.5665 19.9424 92.877 20.5982C93.1874 21.2563 93.2109 22.1295 92.9466 23.2155L92.4194 25.38C92.1798 26.3653 91.7302 27.195 91.07 27.8641C90.4097 28.5355 89.6589 29.0411 88.8168 29.3817C87.9751 29.7236 87.1356 29.8942 86.298 29.8942H67.3074L71.6846 11.9098H94.2859L93.1861 16.425H76.9023L76.3488 18.7016Z" fill="#31312D"></path><path fill-rule="evenodd" clip-rule="evenodd" d="M111.2 20.4463L110.069 17.6766H103.476L108.764 11.9095H113.944L121.691 29.8948H114.824L112.635 24.5446H103.414L98.6979 29.8948H92.3017L100.958 20.4463H111.2Z" fill="#31312D"></path><path fill-rule="evenodd" clip-rule="evenodd" d="M144.073 19.3454L144.784 16.4253H127.323L128.422 11.9092H146.825C148.368 11.9092 149.528 12.4147 150.301 13.4268C151.075 14.4391 151.294 15.6285 150.963 16.9938L150.557 18.6639C150.255 19.9037 149.688 20.889 148.856 21.623C148.022 22.3574 147.131 22.8807 146.176 23.1981C145.222 23.5142 144.42 23.6709 143.766 23.6709H131.876L130.362 29.8946H124.045L126.613 19.3454H144.073Z" fill="#31312D"></path><path fill-rule="evenodd" clip-rule="evenodd" d="M171.233 17.8662L171.583 16.4249H160.361L158.181 25.3799H169.443L170.016 23.027H176.333L174.662 29.8938H150.765L155.143 11.9098H179L177.551 17.8662H171.233Z" fill="#31312D"></path><path fill-rule="evenodd" clip-rule="evenodd" d="M167.324 23.3626H160.992L162.424 17.8892H168.756L168.246 19.8388H177.067L176.733 21.4127H167.834L167.324 23.3626Z" fill="#E3001A"></path><path fill-rule="evenodd" clip-rule="evenodd" d="M74.2675 37.6578H72.2683V36.2084H71.8073V39.5429H72.2683V38.0825H74.2675V39.5429H74.7271V36.2084H74.2675V37.6578Z" fill="#1B1918"></path><path fill-rule="evenodd" clip-rule="evenodd" d="M79.9187 38.9914C79.7474 39.104 79.533 39.1611 79.2825 39.1611C79.0219 39.1611 78.8203 39.1055 78.6794 38.9954C78.5444 38.8881 78.4778 38.7491 78.4778 38.5694C78.4778 38.4092 78.5349 38.2786 78.6502 38.1714C78.7673 38.0641 78.9831 38.0085 79.2894 38.0085H80.2944V38.5123C80.211 38.7198 80.0859 38.8812 79.9187 38.9914ZM79.4537 36.1846C79.2004 36.1846 78.9553 36.2248 78.727 36.3072C78.4972 36.3891 78.2953 36.5062 78.1284 36.6551L78.0769 36.7009L78.319 37.0491L78.3845 36.9907C78.5097 36.8805 78.6656 36.7872 78.8467 36.7151C79.0248 36.6438 79.2198 36.608 79.4288 36.608C79.7141 36.608 79.9327 36.6789 80.0775 36.8194C80.2209 36.9574 80.2944 37.1648 80.2944 37.4373V37.6155H79.2825C78.9747 37.6155 78.734 37.6576 78.5488 37.7465C78.3578 37.8384 78.2213 37.957 78.1409 38.1014C78.0585 38.2449 78.0182 38.4066 78.0182 38.5819C78.0182 38.7769 78.0683 38.9511 78.1672 39.0999C78.2675 39.2518 78.4124 39.3685 78.596 39.4494C78.7771 39.5273 78.993 39.5664 79.2407 39.5664C79.5718 39.5664 79.8491 39.494 80.0661 39.3506C80.1569 39.2891 80.2374 39.2196 80.3073 39.1417V39.5426H80.7554V37.4502C80.7554 37.0353 80.6414 36.7162 80.4145 36.5033C80.1902 36.2918 79.8671 36.1846 79.4537 36.1846Z" fill="#1B1918"></path><path fill-rule="evenodd" clip-rule="evenodd" d="M84.7653 38.6459C84.8098 38.4608 84.8431 38.2517 84.864 38.0249C84.8848 37.8135 84.8987 37.5877 84.9071 37.3565L84.9405 36.6383H86.4428V39.1194H84.5687C84.651 38.9997 84.7181 38.8409 84.7653 38.6459ZM86.9038 36.2079H84.516L84.4714 37.3302C84.459 37.5559 84.4421 37.7797 84.4183 38.0166C84.3964 38.2379 84.3627 38.4384 84.3195 38.6111C84.2779 38.7794 84.2193 38.9118 84.1468 39.0052C84.0898 39.0761 84.0231 39.1139 83.9383 39.1194H83.6737V40.3333H84.122V39.5427H86.9733V40.3333H87.4145V39.1194H86.9038V36.2079Z" fill="#1B1918"></path><path fill-rule="evenodd" clip-rule="evenodd" d="M90.876 37.1981C90.9749 37.0144 91.1113 36.868 91.2826 36.7652C91.4538 36.6605 91.6529 36.6078 91.8727 36.6078C92.1 36.6078 92.2935 36.6591 92.4647 36.7652C92.6345 36.868 92.771 37.0144 92.8712 37.1981C92.9437 37.3291 92.9894 37.475 93.0077 37.6338H90.7396C90.7605 37.475 90.8065 37.3291 90.876 37.1981ZM92.6875 36.3946C92.4465 36.2555 92.1723 36.1846 91.8727 36.1846C91.5723 36.1846 91.2965 36.257 91.0527 36.403C90.8091 36.5479 90.617 36.7483 90.4794 37.0005C90.3429 37.2522 90.2731 37.5475 90.2731 37.8761C90.2731 38.2006 90.347 38.4944 90.4919 38.749C90.6393 39.0051 90.8438 39.2071 91.1003 39.3506C91.3549 39.494 91.6543 39.5664 91.9884 39.5664C92.242 39.5664 92.4801 39.5204 92.697 39.4299C92.9159 39.3391 93.1021 39.2017 93.2485 39.022L93.2902 38.9689L93.0077 38.6502L92.9492 38.7212C92.835 38.8618 92.6956 38.9664 92.5342 39.033C92.3644 39.1014 92.1833 39.1376 91.9942 39.1376C91.7477 39.1376 91.5276 39.0831 91.3382 38.9787C91.149 38.8741 90.9971 38.7268 90.8899 38.5402C90.8022 38.3857 90.7509 38.2171 90.7341 38.0265H93.46V37.9484C93.46 37.936 93.4614 37.9221 93.4614 37.9178C93.4655 37.8983 93.4669 37.8815 93.4669 37.8636C93.4669 37.535 93.3973 37.2413 93.2593 36.9891C93.1218 36.7359 92.9298 36.5355 92.6875 36.3946Z" fill="#1B1918"></path><path fill-rule="evenodd" clip-rule="evenodd" d="M100.818 36.3306L100.906 36.2079H100.378L99.3773 37.6518H98.7505V36.2079H98.2899V37.6518H97.669L96.6902 36.2412L96.6678 36.2079H96.1403L97.2819 37.8329L96.0399 39.5427H96.6064L97.6675 38.0696H98.2899V39.5427H98.7505V38.0696H99.3784L100.416 39.5105L100.439 39.5427H100.999L99.763 37.8329L100.818 36.3306Z" fill="#1B1918"></path><path fill-rule="evenodd" clip-rule="evenodd" d="M106.454 37.6578H104.455V36.2084H103.993V39.5429H104.455V38.0825H106.454V39.5429H106.913V36.2084H106.454V37.6578Z" fill="#1B1918"></path><path fill-rule="evenodd" clip-rule="evenodd" d="M110.97 37.748L111.761 37.7521C112.07 37.7563 112.304 37.8161 112.454 37.9317C112.601 38.0433 112.672 38.2102 112.672 38.4415C112.672 38.6837 112.599 38.8578 112.45 38.9774C112.304 39.0956 112.083 39.1557 111.792 39.1557H111.764L110.97 39.1432V37.748ZM111.843 37.3652L110.97 37.3539V36.2079H110.509V39.5426L111.774 39.5551C111.783 39.5551 111.793 39.5565 111.803 39.5565C112.219 39.5565 112.546 39.4617 112.774 39.2766C113.011 39.083 113.131 38.8021 113.131 38.4412C113.131 38.0932 113.018 37.8228 112.796 37.6406C112.577 37.4624 112.257 37.3693 111.843 37.3652Z" fill="#1B1918"></path><path fill-rule="evenodd" clip-rule="evenodd" d="M113.56 39.5427H114.021V36.2084H113.56V39.5427Z" fill="#1B1918"></path><path fill-rule="evenodd" clip-rule="evenodd" d="M117.888 37.1981C117.987 37.0144 118.123 36.868 118.295 36.7652C118.466 36.6605 118.665 36.6078 118.885 36.6078C119.112 36.6078 119.306 36.6591 119.477 36.7652C119.647 36.868 119.783 37.0144 119.883 37.1981C119.956 37.3291 120.002 37.475 120.02 37.6338H117.752C117.773 37.475 117.819 37.3291 117.888 37.1981ZM119.7 36.3946C119.459 36.2555 119.185 36.1846 118.885 36.1846C118.584 36.1846 118.309 36.257 118.065 36.403C117.821 36.5479 117.629 36.7483 117.492 37.0005C117.355 37.2522 117.285 37.5475 117.285 37.8761C117.285 38.2006 117.359 38.4944 117.504 38.749C117.651 39.0051 117.856 39.2071 118.112 39.3506C118.367 39.494 118.666 39.5664 119.001 39.5664C119.254 39.5664 119.492 39.5204 119.709 39.4299C119.928 39.3391 120.114 39.2017 120.261 39.022L120.302 38.9689L120.02 38.6502L119.961 38.7212C119.847 38.8618 119.708 38.9664 119.547 39.033C119.377 39.1014 119.196 39.1376 119.006 39.1376C118.76 39.1376 118.54 39.0831 118.35 38.9787C118.161 38.8741 118.009 38.7268 117.902 38.5402C117.814 38.3857 117.763 38.2171 117.746 38.0265H120.472V37.9484C120.472 37.936 120.474 37.9221 120.474 37.9178C120.478 37.8983 120.479 37.8815 120.479 37.8636C120.479 37.535 120.41 37.2413 120.272 36.9891C120.134 36.7359 119.942 36.5355 119.7 36.3946Z" fill="#1B1918"></path><path fill-rule="evenodd" clip-rule="evenodd" d="M127.75 39.5427H128.211V36.6383H130.223V39.5427H130.682V36.2084H127.75V39.5427Z" fill="#1B1918"></path><path fill-rule="evenodd" clip-rule="evenodd" d="M135.321 36.7722C135.505 36.6664 135.705 36.6149 135.937 36.6149C136.165 36.6149 136.372 36.668 136.555 36.7722C136.739 36.8765 136.879 37.0214 136.986 37.2109C137.091 37.3986 137.144 37.6229 137.144 37.8765C137.144 38.1256 137.091 38.3481 136.986 38.5377C136.881 38.7268 136.736 38.8761 136.555 38.9789C136.371 39.0847 136.169 39.1377 135.937 39.1377C135.705 39.1377 135.503 39.0861 135.321 38.9789C135.142 38.8746 134.998 38.7268 134.894 38.5391C134.789 38.3481 134.737 38.1256 134.737 37.8765C134.737 37.6229 134.789 37.3986 134.894 37.2109C134.997 37.0243 135.142 36.8765 135.321 36.7722ZM136.801 36.3976C136.551 36.2556 136.267 36.1846 135.955 36.1846C135.664 36.1846 135.395 36.253 135.158 36.3895C134.993 36.4839 134.851 36.6094 134.731 36.7638V36.2084H134.282V40.7234H134.742V39.0026C134.858 39.1487 134.997 39.2698 135.158 39.363C135.394 39.4984 135.662 39.5665 135.955 39.5665C136.269 39.5665 136.554 39.4955 136.801 39.3535C137.05 39.2102 137.248 39.0082 137.39 38.755C137.532 38.5013 137.603 38.2061 137.603 37.8765C137.603 37.545 137.532 37.2497 137.39 36.9965C137.248 36.743 137.05 36.5409 136.801 36.3976Z" fill="#1B1918"></path><path fill-rule="evenodd" clip-rule="evenodd" d="M141.335 38.7799V36.2084H140.874V39.5429H141.257L143.407 36.9713V39.5429H143.868V36.2084H143.487L141.335 38.7799Z" fill="#1B1918"></path><path fill-rule="evenodd" clip-rule="evenodd" d="M150.863 39.1193H150.334V36.2079H149.873V39.1193H147.922V36.2079H147.462V39.5426H150.415V40.3334H150.863V39.5426H150.906L150.863 39.5218V39.1193Z" fill="#1B1918"></path><path fill-rule="evenodd" clip-rule="evenodd" d="M154.312 37.1981C154.41 37.0144 154.547 36.868 154.718 36.7652C154.889 36.6605 155.088 36.6078 155.309 36.6078C155.535 36.6078 155.729 36.6591 155.9 36.7652C156.07 36.868 156.206 37.0144 156.307 37.1981C156.379 37.3291 156.425 37.475 156.443 37.6338H154.175C154.196 37.475 154.242 37.3291 154.312 37.1981ZM156.123 36.3946C155.882 36.2555 155.608 36.1846 155.309 36.1846C155.008 36.1846 154.732 36.257 154.488 36.403C154.245 36.5479 154.053 36.7483 153.915 37.0005C153.778 37.2522 153.709 37.5475 153.709 37.8761C153.709 38.2006 153.782 38.4944 153.927 38.749C154.075 39.0051 154.279 39.2071 154.536 39.3506C154.79 39.494 155.09 39.5664 155.424 39.5664C155.677 39.5664 155.916 39.5204 156.133 39.4299C156.351 39.3391 156.538 39.2017 156.684 39.022L156.726 38.9689L156.443 38.6502L156.385 38.7212C156.27 38.8618 156.131 38.9664 155.97 39.033C155.8 39.1014 155.619 39.1376 155.43 39.1376C155.183 39.1376 154.963 39.0831 154.774 38.9787C154.584 38.8741 154.433 38.7268 154.325 38.5402C154.238 38.3857 154.186 38.2171 154.17 38.0265H156.895V37.9484C156.895 37.936 156.897 37.9221 156.897 37.9178C156.901 37.8983 156.902 37.8815 156.902 37.8636C156.902 37.535 156.833 37.2413 156.695 36.9891C156.557 36.7359 156.365 36.5355 156.123 36.3946Z" fill="#1B1918"></path><path fill-rule="evenodd" clip-rule="evenodd" d="M160.173 39.5427H160.633V36.6383H162.645V39.5427H163.105V36.2084H160.173V39.5427Z" fill="#1B1918"></path><path fill-rule="evenodd" clip-rule="evenodd" d="M167.159 37.748L167.95 37.7521C168.259 37.7563 168.493 37.8161 168.643 37.9317C168.789 38.0433 168.86 38.2102 168.86 38.4415C168.86 38.6837 168.788 38.8578 168.639 38.9774C168.493 39.0956 168.271 39.1557 167.98 39.1557H167.953L167.159 39.1432V37.748ZM168.032 37.3652L167.159 37.3539V36.2079H166.698V39.5426L167.962 39.5551C167.972 39.5551 167.982 39.5565 167.992 39.5565C168.408 39.5565 168.735 39.4617 168.964 39.2766C169.2 39.083 169.32 38.8021 169.32 38.4412C169.32 38.0932 169.207 37.8228 168.984 37.6406C168.766 37.4624 168.445 37.3693 168.032 37.3652Z" fill="#1B1918"></path><path fill-rule="evenodd" clip-rule="evenodd" d="M169.749 39.5427H170.21V36.2084H169.749V39.5427Z" fill="#1B1918"></path></svg> 