<svg width="25" height="25" viewBox="0 0 25 25" fill="none" xmlns="http://www.w3.org/2000/svg">
<g clip-path="url(#clip0_309_714)">
<path d="M7.14267 2.54695C8.3333 3.41466 9.26038 4.59903 10.052 5.73236L10.5125 6.4032L10.9468 7.04382C11.1641 7.36125 11.257 7.74752 11.2078 8.12903C11.1587 8.51054 10.9708 8.86062 10.6802 9.11257L8.64788 10.6219C8.5497 10.6928 8.48058 10.797 8.45338 10.915C8.42617 11.033 8.44273 11.1569 8.49997 11.2636C8.96038 12.1001 9.77913 13.3459 10.7166 14.2834C11.6552 15.2209 12.9593 16.0938 13.8541 16.6063C13.9663 16.6693 14.0984 16.6869 14.2232 16.6555C14.3479 16.6241 14.4559 16.5461 14.525 16.4376L15.8479 14.424C16.0911 14.101 16.4499 13.8845 16.8491 13.8201C17.2483 13.7556 17.657 13.8481 17.9896 14.0782L18.6802 14.5563C19.9708 15.4522 21.3573 16.4699 22.4177 17.8272C22.5858 18.0436 22.6928 18.3012 22.7275 18.5732C22.7621 18.8451 22.7231 19.1213 22.6145 19.373C21.7427 21.4074 19.5364 23.1397 17.2416 23.0553L16.9291 23.0376L16.6864 23.0167L16.4177 22.9855L16.125 22.9459L15.8073 22.8938C15.7516 22.8838 15.6961 22.8734 15.6406 22.8626L15.2906 22.7876C15.2294 22.7741 15.1683 22.7602 15.1073 22.7459L14.726 22.648L14.325 22.5334L13.9062 22.398C11.9833 21.7459 9.54267 20.4647 7.03851 17.9605C4.53538 15.4574 3.25413 13.0167 2.60205 11.0938L2.46663 10.6751L2.35205 10.274L2.25413 9.89278L2.17288 9.53236C2.14941 9.41948 2.12754 9.30628 2.10726 9.19278L2.05517 8.87507L2.01351 8.58236L1.9833 8.31361L1.96247 8.07091L1.9458 7.75841C1.86142 5.47091 3.61247 3.24903 5.63747 2.38132C5.88119 2.27608 6.14809 2.23601 6.41198 2.26505C6.67586 2.29408 6.92766 2.39123 7.14267 2.54695ZM15.6166 6.29174L15.7375 6.30528C16.4957 6.43903 17.1921 6.80939 17.7269 7.36328C18.2617 7.91717 18.6075 8.62615 18.7146 9.38861C18.7527 9.65234 18.6884 9.92067 18.5348 10.1384C18.3811 10.3561 18.1499 10.5067 17.8886 10.5592C17.6274 10.6116 17.3559 10.5619 17.1302 10.4203C16.9044 10.2787 16.7415 10.056 16.675 9.79799L16.651 9.6782C16.6091 9.37934 16.4815 9.09902 16.2838 8.8711C16.086 8.64318 15.8264 8.47741 15.5364 8.39382L15.375 8.35736C15.1134 8.311 14.8794 8.16646 14.7209 7.95331C14.5624 7.74015 14.4913 7.47448 14.5222 7.21064C14.553 6.9468 14.6835 6.70472 14.887 6.53391C15.0904 6.3631 15.3514 6.27647 15.6166 6.29174ZM15.625 3.12507C17.2826 3.12507 18.8723 3.78355 20.0444 4.95565C21.2165 6.12776 21.875 7.71747 21.875 9.37507C21.8747 9.64057 21.773 9.89594 21.5908 10.089C21.4085 10.2821 21.1594 10.3982 20.8943 10.4138C20.6293 10.4294 20.3683 10.3431 20.1647 10.1727C19.9611 10.0023 19.8303 9.76059 19.7989 9.49695L19.7916 9.37507C19.792 8.31718 19.3898 7.29878 18.6666 6.52666C17.9435 5.75454 16.9535 5.28658 15.8979 5.21778L15.625 5.20841C15.3487 5.20841 15.0837 5.09866 14.8884 4.90331C14.693 4.70796 14.5833 4.44301 14.5833 4.16674C14.5833 3.89047 14.693 3.62552 14.8884 3.43017C15.0837 3.23482 15.3487 3.12507 15.625 3.12507Z" fill="white"/>
</g>
<defs>
<clipPath id="clip0_309_714">
<rect width="25" height="25" fill="white"/>
</clipPath>
</defs>
</svg>
