<svg width="22" height="18" viewBox="0 0 22 18" fill="none" xmlns="http://www.w3.org/2000/svg">
<path d="M15.78 4.22C15.922 4.36 16 4.551 16 4.75V7.25C16 7.44891 15.921 7.63968 15.7803 7.78033C15.6397 7.92098 15.4489 8 15.25 8C15.0511 8 14.8603 7.92098 14.7197 7.78033C14.579 7.63968 14.5 7.44891 14.5 7.25V6.56L12.78 8.28C12.7108 8.3516 12.628 8.4087 12.5365 8.44796C12.445 8.48722 12.3465 8.50786 12.2469 8.50868C12.1474 8.5095 12.0486 8.49048 11.9565 8.45272C11.8643 8.41497 11.7806 8.35924 11.7102 8.28879C11.6398 8.21834 11.5842 8.13457 11.5465 8.04238C11.5088 7.95019 11.4899 7.85142 11.4908 7.75184C11.4917 7.65226 11.5125 7.55385 11.5518 7.46237C11.5912 7.37088 11.6483 7.28815 11.72 7.219L13.44 5.5H12.75C12.5511 5.5 12.3603 5.42098 12.2197 5.28033C12.079 5.13968 12 4.94891 12 4.75C12 4.55109 12.079 4.36032 12.2197 4.21967C12.3603 4.07902 12.5511 4 12.75 4H15.25C15.4488 4.00017 15.6395 4.07931 15.78 4.22ZM6 13.25C6 13.4489 6.07902 13.6397 6.21967 13.7803C6.36032 13.921 6.55109 14 6.75 14H9.251C9.44991 14 9.64068 13.921 9.78133 13.7803C9.92198 13.6397 10.001 13.4489 10.001 13.25C10.001 13.0511 9.92198 12.8603 9.78133 12.7197C9.64068 12.579 9.44991 12.5 9.251 12.5H8.561L10.281 10.78C10.4176 10.6385 10.4931 10.449 10.4913 10.2523C10.4895 10.0557 10.4105 9.86763 10.2714 9.72864C10.1322 9.58965 9.9441 9.51086 9.74745 9.50924C9.5508 9.50763 9.36139 9.58331 9.22 9.72L7.5 11.438V10.748C7.5 10.5491 7.42098 10.3583 7.28033 10.2177C7.13968 10.077 6.94891 9.998 6.75 9.998C6.55109 9.998 6.36032 10.077 6.21967 10.2177C6.07902 10.3583 6 10.5491 6 10.748V13.25ZM1 3.75C1 3.02065 1.28973 2.32118 1.80546 1.80546C2.32118 1.28973 3.02065 1 3.75 1H18.25C18.9793 1 19.6788 1.28973 20.1945 1.80546C20.7103 2.32118 21 3.02065 21 3.75V14.25C21 14.6111 20.9289 14.9687 20.7907 15.3024C20.6525 15.636 20.4499 15.9392 20.1945 16.1945C19.9392 16.4499 19.636 16.6525 19.3024 16.7907C18.9687 16.9289 18.6111 17 18.25 17H3.75C3.38886 17 3.03127 16.9289 2.69762 16.7907C2.36398 16.6525 2.06082 16.4499 1.80546 16.1945C1.5501 15.9392 1.34753 15.636 1.20933 15.3024C1.07113 14.9687 1 14.6111 1 14.25V3.75ZM3.75 2.5C3.06 2.5 2.5 3.06 2.5 3.75V14.25C2.5 14.94 3.06 15.5 3.75 15.5H18.25C18.94 15.5 19.5 14.94 19.5 14.25V3.75C19.5 3.06 18.94 2.5 18.25 2.5H3.75Z" fill="white" stroke="white" stroke-width="0.6"/>
</svg>
