<svg width="29" height="20" viewBox="0 0 29 20" fill="none" xmlns="http://www.w3.org/2000/svg">
<path d="M12.0031 9.63322C9.29467 9.63322 7.09404 11.8338 7.09404 14.5423C7.09404 17.2508 9.29467 19.4514 12.0031 19.4514C14.7116 19.4514 16.9122 17.2508 16.9122 14.5423C16.9122 11.8338 14.7116 9.63322 12.0031 9.63322ZM12.0031 18.0972C10.0564 18.0972 8.44828 16.489 8.44828 14.5423C8.44828 12.5956 10.0564 10.9875 12.0031 10.9875C13.9498 10.9875 15.558 12.5956 15.558 14.5423C15.558 16.489 13.9498 18.0972 12.0031 18.0972Z" fill="#DF4343"/>
<path d="M11.1567 13.6959H12.8495V15.3887H11.1567V13.6959Z" fill="#DF4343"/>
<path d="M27.2382 1H1V12.0878C1 13.9498 2.43887 15.3887 4.30094 15.3887H5.23197V13.6959H4.30094C3.45455 13.6959 2.77743 13.0188 2.69279 12.0878V6.07837H21.3135V12.0878C21.3135 12.9342 20.6364 13.6113 19.7053 13.6959H18.7743V15.3887H19.7053C21.4828 15.3887 22.9216 13.9498 22.9216 12.0878V2.69279H27.1536C27.6614 2.69279 28 2.35423 28 1.84639C28 1.33856 27.7461 1 27.2382 1ZM21.3135 4.38558H2.69279V2.69279H21.3135V4.38558Z" fill="#DF4343"/>
<path d="M12.0031 9.63322C9.29467 9.63322 7.09404 11.8338 7.09404 14.5423C7.09404 17.2508 9.29467 19.4514 12.0031 19.4514C14.7116 19.4514 16.9122 17.2508 16.9122 14.5423C16.9122 11.8338 14.7116 9.63322 12.0031 9.63322ZM12.0031 18.0972C10.0564 18.0972 8.44828 16.489 8.44828 14.5423C8.44828 12.5956 10.0564 10.9875 12.0031 10.9875C13.9498 10.9875 15.558 12.5956 15.558 14.5423C15.558 16.489 13.9498 18.0972 12.0031 18.0972Z" stroke="#DF4343" stroke-width="0.58431"/>
<path d="M11.1567 13.6959H12.8495V15.3887H11.1567V13.6959Z" stroke="#DF4343" stroke-width="0.58431"/>
<path d="M27.2382 1H1V12.0878C1 13.9498 2.43887 15.3887 4.30094 15.3887H5.23197V13.6959H4.30094C3.45455 13.6959 2.77743 13.0188 2.69279 12.0878V6.07837H21.3135V12.0878C21.3135 12.9342 20.6364 13.6113 19.7053 13.6959H18.7743V15.3887H19.7053C21.4828 15.3887 22.9216 13.9498 22.9216 12.0878V2.69279H27.1536C27.6614 2.69279 28 2.35423 28 1.84639C28 1.33856 27.7461 1 27.2382 1ZM21.3135 4.38558H2.69279V2.69279H21.3135V4.38558Z" stroke="#DF4343" stroke-width="0.58431"/>
</svg>
