<svg width="20" height="22" viewBox="0 0 20 22" fill="none" xmlns="http://www.w3.org/2000/svg">
<path d="M17.5696 1H4.46124C3.39489 1 2.51795 1.85445 2.51795 2.92079V4.68598H1.25812C0.819995 4.68598 0.464844 5.04029 0.464844 5.47841C0.464844 5.91652 0.819995 6.27083 1.25812 6.27083H2.51795V10.4371H1.25812C0.819995 10.4371 0.464844 10.7914 0.464844 11.2295C0.464844 11.6676 0.819995 12.0219 1.25812 12.0219H2.51795V16.1401H1.25812C0.819995 16.1401 0.464844 16.5004 0.464844 16.9386C0.464844 17.3767 0.819995 17.737 1.25812 17.737H2.51795V19.5195C2.51795 20.5859 3.39489 21.459 4.46124 21.459H12.1656C12.376 21.459 12.5778 21.3727 12.7266 21.2239L19.2669 14.6779C19.4157 14.5292 19.4951 14.326 19.4951 14.1156V2.9208C19.4951 1.85445 18.6359 1 17.5696 1ZM4.1028 19.5195V17.737H5.46248C5.90061 17.737 6.25576 17.3767 6.25576 16.9386C6.25576 16.5004 5.90061 16.1401 5.46248 16.1401H4.1028V12.0219H5.46248C5.90061 12.0219 6.25576 11.6676 6.25576 11.2295C6.25576 10.7914 5.90061 10.4371 5.46248 10.4371H4.1028V6.27083H5.46248C5.90061 6.27083 6.25576 5.91653 6.25576 5.47841C6.25576 5.04028 5.90061 4.68598 5.46248 4.68598H4.1028V2.92079C4.1028 2.72929 4.26974 2.58485 4.46124 2.58485H17.5696C17.7611 2.58485 17.9102 2.72929 17.9102 2.92079V12.9344H12.9096C11.8433 12.9344 10.9705 13.7932 10.9705 14.8596V19.8741H4.46124C4.26974 19.8741 4.1028 19.711 4.1028 19.5195ZM12.5553 19.1416V14.8596C12.5553 14.6681 12.7181 14.5193 12.9096 14.5193H17.1917L12.5553 19.1416Z" fill="#DF4343" stroke="#DF4343" stroke-width="0.5"/>
</svg>
