<svg width="28" height="18" viewBox="0 0 28 18" fill="none" xmlns="http://www.w3.org/2000/svg">
<path d="M2.3 7.7002L4.9 1.2002H7.5M2.3 7.7002H1V14.2002H2.3M2.3 7.7002H7.5M7.5 1.2002V7.7002M7.5 1.2002H14M2.3 14.2002C2.3 15.6361 3.46406 16.8002 4.9 16.8002C6.33594 16.8002 7.5 15.6361 7.5 14.2002M2.3 14.2002C2.3 12.7643 3.46406 11.6002 4.9 11.6002C6.33594 11.6002 7.5 12.7643 7.5 14.2002M7.5 7.7002H14M21.8 7.7002L19.2 1.2002H14M21.8 7.7002H24.4C25.836 7.7002 27 8.86422 27 10.3002V14.2002H24.4M21.8 7.7002H14M14 1.2002V7.7002M24.4 14.2002C24.4 15.6361 23.2359 16.8002 21.8 16.8002C20.3641 16.8002 19.2 15.6361 19.2 14.2002M24.4 14.2002C24.4 12.7643 23.2359 11.6002 21.8 11.6002C20.3641 11.6002 19.2 12.7643 19.2 14.2002M7.5 14.2002H19.2" stroke="#232DF4" stroke-width="2" stroke-linecap="square"/>
<path d="M2.3 7.7002L4.9 1.2002H7.5M2.3 7.7002H1V14.2002H2.3M2.3 7.7002H7.5M7.5 1.2002V7.7002M7.5 1.2002H14M2.3 14.2002C2.3 15.6361 3.46406 16.8002 4.9 16.8002C6.33594 16.8002 7.5 15.6361 7.5 14.2002M2.3 14.2002C2.3 12.7643 3.46406 11.6002 4.9 11.6002C6.33594 11.6002 7.5 12.7643 7.5 14.2002M7.5 7.7002H14M21.8 7.7002L19.2 1.2002H14M21.8 7.7002H24.4C25.836 7.7002 27 8.86422 27 10.3002V14.2002H24.4M21.8 7.7002H14M14 1.2002V7.7002M24.4 14.2002C24.4 15.6361 23.2359 16.8002 21.8 16.8002C20.3641 16.8002 19.2 15.6361 19.2 14.2002M24.4 14.2002C24.4 12.7643 23.2359 11.6002 21.8 11.6002C20.3641 11.6002 19.2 12.7643 19.2 14.2002M7.5 14.2002H19.2" stroke="#DF4343" stroke-width="2" stroke-linecap="square"/>
</svg>
