<svg width="22" height="22" viewBox="0 0 22 22" fill="none" xmlns="http://www.w3.org/2000/svg">
<path d="M0.00441472 22L1.49161 16.5352C0.511666 14.8553 -0.00317969 12.9448 1.47755e-05 11C1.47755e-05 4.9247 4.92471 0 11 0C17.0753 0 22 4.9247 22 11C22 17.0753 17.0753 22 11 22C9.05606 22.0031 7.14633 21.4887 5.46701 20.5095L0.00441472 22ZM7.03011 5.8388C6.88806 5.84762 6.74925 5.88503 6.62201 5.9488C6.50268 6.01637 6.39376 6.10084 6.29861 6.1996C6.16661 6.3239 6.09181 6.4317 6.01151 6.5362C5.60496 7.06529 5.38628 7.71476 5.39001 8.38199C5.39221 8.92099 5.53301 9.44569 5.75301 9.93629C6.20291 10.9285 6.94321 11.979 7.92111 12.9525C8.15651 13.1868 8.38641 13.4222 8.63391 13.6411C9.84764 14.7097 11.294 15.4803 12.8579 15.8917L13.4838 15.9874C13.6873 15.9984 13.8908 15.983 14.0954 15.9731C14.4158 15.9566 14.7286 15.8698 15.0117 15.719C15.1558 15.6448 15.2963 15.564 15.433 15.477C15.433 15.477 15.4803 15.4462 15.5705 15.378C15.719 15.268 15.8103 15.1899 15.9335 15.0612C16.0248 14.9666 16.104 14.8555 16.1645 14.729C16.2503 14.5497 16.3361 14.2076 16.3713 13.9227C16.3977 13.7049 16.39 13.5861 16.3867 13.5124C16.3823 13.3947 16.2844 13.2726 16.1777 13.2209L15.5375 12.9338C15.5375 12.9338 14.5805 12.5169 13.9964 12.2507C13.9348 12.2238 13.8688 12.2086 13.8017 12.2056C13.7264 12.1979 13.6504 12.2063 13.5787 12.2304C13.507 12.2545 13.4412 12.2937 13.3859 12.3453V12.3431C13.3804 12.3431 13.3067 12.4058 12.5114 13.3694C12.4658 13.4307 12.4029 13.4771 12.3308 13.5026C12.2587 13.528 12.1807 13.5314 12.1066 13.5124C12.0349 13.4932 11.9647 13.469 11.8965 13.4398C11.7601 13.3826 11.7128 13.3606 11.6193 13.3199L11.6138 13.3177C10.9845 13.0429 10.4019 12.6718 9.88681 12.2177C9.74821 12.0967 9.61951 11.9647 9.48751 11.8371C9.05474 11.4227 8.6776 10.9538 8.36551 10.4423L8.30061 10.3378C8.25399 10.2676 8.2163 10.1918 8.18841 10.1123C8.14661 9.95059 8.25551 9.82079 8.25551 9.82079C8.25551 9.82079 8.52281 9.52819 8.64711 9.36979C8.75061 9.23815 8.84717 9.1012 8.93641 8.95949C9.06621 8.75049 9.10691 8.53599 9.03871 8.36989C8.73071 7.6175 8.41171 6.8684 8.08391 6.1248C8.01901 5.9774 7.82651 5.8718 7.65161 5.8509C7.59221 5.8443 7.53281 5.8377 7.47341 5.8333C7.32569 5.82596 7.17766 5.82853 7.03011 5.8388Z" fill="white"/>
</svg>
