<svg width="25" height="16" viewBox="0 0 25 16" fill="none" xmlns="http://www.w3.org/2000/svg">
<path d="M6.23675 13.0663H5.45124H6.23675ZM16.7103 13.0663H17.4958H16.7103ZM10.4785 12.2808C10.0447 12.2808 9.69301 12.6324 9.69301 13.0663C9.69301 13.5001 10.0447 13.8518 10.4785 13.8518V12.2808ZM15.6629 2.17382H16.4484H15.6629ZM1 0.759897C0.566173 0.759897 0.214487 1.11158 0.214487 1.54541C0.214487 1.97924 0.566173 2.33092 1 2.33092V0.759897ZM5.87018 13.8518C6.30401 13.8518 6.65569 13.5001 6.65569 13.0663C6.65569 12.6324 6.30401 12.2808 5.87018 12.2808V13.8518ZM3.88021 7.30584C3.88021 6.87201 3.52853 6.52033 3.0947 6.52033C2.66087 6.52033 2.30919 6.87201 2.30919 7.30584H3.88021ZM2.04735 3.90195C1.61352 3.90195 1.26184 4.25364 1.26184 4.68746C1.26184 5.12129 1.61352 5.47298 2.04735 5.47298V3.90195ZM6.23675 5.47298C6.67058 5.47298 7.02227 5.12129 7.02227 4.68746C7.02227 4.25364 6.67058 3.90195 6.23675 3.90195V5.47298ZM15.6629 3.90195C15.2291 3.90195 14.8774 4.25364 14.8774 4.68746C14.8774 5.12129 15.2291 5.47298 15.6629 5.47298V3.90195ZM21.5385 4.68746L21.5387 3.90195H21.5385V4.68746ZM22.1125 5.06032L22.8303 4.74133L22.8301 4.74088L22.1125 5.06032ZM23.9873 9.27905L23.2694 9.59804L23.2698 9.59892L23.9873 9.27905ZM24.0417 9.53355H24.8272L24.8272 9.53181L24.0417 9.53355ZM24.0417 12.4379H24.8272H24.0417ZM23.4133 13.0663V13.8518V13.0663ZM21.4233 12.2808C20.9895 12.2808 20.6378 12.6324 20.6378 13.0663C20.6378 13.5001 20.9895 13.8518 21.4233 13.8518V12.2808ZM8.33146 15.9465C9.09534 15.9465 9.82793 15.643 10.3681 15.1029L9.25719 13.992C9.01167 14.2375 8.67867 14.3755 8.33146 14.3755V15.9465ZM10.3681 15.1029C10.9082 14.5627 11.2117 13.8302 11.2117 13.0663H9.64065C9.64065 13.4135 9.50271 13.7465 9.25719 13.992L10.3681 15.1029ZM11.2117 13.0663C11.2117 12.3024 10.9082 11.5698 10.3681 11.0296L9.25719 12.1405C9.50271 12.3861 9.64065 12.7191 9.64065 13.0663H11.2117ZM10.3681 11.0296C9.82793 10.4895 9.09534 10.1861 8.33146 10.1861V11.7571C8.67867 11.7571 9.01167 11.895 9.25719 12.1405L10.3681 11.0296ZM8.33146 10.1861C7.56758 10.1861 6.83498 10.4895 6.29484 11.0296L7.40572 12.1405C7.65124 11.895 7.98424 11.7571 8.33146 11.7571V10.1861ZM6.29484 11.0296C5.75469 11.5698 5.45124 12.3024 5.45124 13.0663H7.02227C7.02227 12.7191 7.1602 12.3861 7.40572 12.1405L6.29484 11.0296ZM5.45124 13.0663C5.45124 13.8302 5.75469 14.5627 6.29484 15.1029L7.40572 13.992C7.1602 13.7465 7.02227 13.4135 7.02227 13.0663H5.45124ZM6.29484 15.1029C6.83498 15.643 7.56758 15.9465 8.33146 15.9465V14.3755C7.98424 14.3755 7.65124 14.2375 7.40572 13.992L6.29484 15.1029ZM18.805 15.9465C19.5688 15.9465 20.3014 15.643 20.8416 15.1029L19.7307 13.992C19.4852 14.2375 19.1522 14.3755 18.805 14.3755V15.9465ZM20.8416 15.1029C21.3817 14.5627 21.6852 13.8302 21.6852 13.0663H20.1142C20.1142 13.4135 19.9762 13.7465 19.7307 13.992L20.8416 15.1029ZM21.6852 13.0663C21.6852 12.3024 21.3817 11.5698 20.8416 11.0296L19.7307 12.1405C19.9762 12.3861 20.1142 12.7191 20.1142 13.0663H21.6852ZM20.8416 11.0296C20.3014 10.4895 19.5688 10.1861 18.805 10.1861V11.7571C19.1522 11.7571 19.4852 11.895 19.7307 12.1405L20.8416 11.0296ZM18.805 10.1861C18.0411 10.1861 17.3085 10.4895 16.7683 11.0296L17.8792 12.1405C18.1248 11.895 18.4577 11.7571 18.805 11.7571V10.1861ZM16.7683 11.0296C16.2282 11.5698 15.9248 12.3024 15.9248 13.0663H17.4958C17.4958 12.7191 17.6337 12.3861 17.8792 12.1405L16.7683 11.0296ZM15.9248 13.0663C15.9248 13.8302 16.2282 14.5627 16.7683 15.1029L17.8792 13.992C17.6337 13.7465 17.4958 13.4135 17.4958 13.0663H15.9248ZM16.7683 15.1029C17.3085 15.643 18.0411 15.9465 18.805 15.9465V14.3755C18.4577 14.3755 18.1248 14.2375 17.8792 13.992L16.7683 15.1029ZM10.4785 13.8518H15.6629V12.2808H10.4785V13.8518ZM16.4484 13.0663V2.17382H14.8774V13.0663H16.4484ZM16.4484 2.17382C16.4484 1.79883 16.2995 1.43919 16.0343 1.17403L14.9234 2.28491C14.8939 2.25544 14.8774 2.21548 14.8774 2.17382H16.4484ZM16.0343 1.17403C15.7691 0.908862 15.4095 0.759897 15.0345 0.759897V2.33092C14.9928 2.33092 14.9529 2.31437 14.9234 2.28491L16.0343 1.17403ZM15.0345 0.759897H1V2.33092H15.0345V0.759897ZM5.87018 12.2808H3.72311V13.8518H5.87018V12.2808ZM3.72311 12.2808C3.74374 12.2808 3.76417 12.2848 3.78323 12.2927L3.18203 13.7442C3.35357 13.8152 3.53744 13.8518 3.72311 13.8518V12.2808ZM3.78323 12.2927C3.80229 12.3006 3.81961 12.3122 3.8342 12.3268L2.72332 13.4377C2.85462 13.569 3.01049 13.6731 3.18203 13.7442L3.78323 12.2927ZM3.8342 12.3268C3.84879 12.3414 3.86036 12.3587 3.86826 12.3777L2.41682 12.9789C2.48787 13.1505 2.59202 13.3064 2.72332 13.4377L3.8342 12.3268ZM3.86826 12.3777C3.87615 12.3968 3.88021 12.4172 3.88021 12.4379H2.30919C2.30919 12.6235 2.34576 12.8074 2.41682 12.9789L3.86826 12.3777ZM3.88021 12.4379V7.30584H2.30919V12.4379H3.88021ZM2.04735 5.47298H6.23675V3.90195H2.04735V5.47298ZM15.6629 5.47298H21.5385V3.90195H15.6629V5.47298ZM21.5384 5.47298C21.508 5.47297 21.4783 5.46416 21.4528 5.44762L22.3087 4.13018C22.0795 3.98129 21.8121 3.90202 21.5387 3.90195L21.5384 5.47298ZM21.4528 5.44762C21.4273 5.43108 21.4072 5.40751 21.3949 5.37976L22.8301 4.74088C22.719 4.49119 22.5378 4.27907 22.3087 4.13018L21.4528 5.44762ZM21.3947 5.37931L23.2694 9.59804L24.7051 8.96005L22.8303 4.74133L21.3947 5.37931ZM23.2698 9.59892C23.2609 9.57891 23.2563 9.55724 23.2562 9.5353L24.8272 9.53181C24.8268 9.33446 24.785 9.1394 24.7047 8.95917L23.2698 9.59892ZM23.2562 9.53355V12.4379H24.8272V9.53355H23.2562ZM23.2562 12.4379C23.2562 12.4172 23.2603 12.3968 23.2682 12.3777L24.7196 12.9789C24.7907 12.8074 24.8272 12.6235 24.8272 12.4379H23.2562ZM23.2682 12.3777C23.2761 12.3587 23.2876 12.3414 23.3022 12.3268L24.4131 13.4377C24.5444 13.3063 24.6486 13.1505 24.7196 12.9789L23.2682 12.3777ZM23.3022 12.3268C23.3168 12.3122 23.3341 12.3006 23.3532 12.2927L23.9544 13.7442C24.1259 13.6731 24.2818 13.5689 24.4131 13.4377L23.3022 12.3268ZM23.3532 12.2927C23.3723 12.2848 23.3927 12.2808 23.4133 12.2808V13.8518C23.599 13.8518 23.7828 13.8152 23.9544 13.7442L23.3532 12.2927ZM23.4133 12.2808H21.4233V13.8518H23.4133V12.2808ZM15.6629 13.8518H16.7103V12.2808H15.6629V13.8518Z" fill="#DF4343"/>
</svg>
