<svg width="21" height="23" viewBox="0 0 21 23" fill="none" xmlns="http://www.w3.org/2000/svg">
<path d="M2.3 23C1.6675 23 1.12585 22.7746 0.675052 22.3238C0.224252 21.873 -0.000764714 21.3317 1.95246e-06 20.7V4.6C1.95246e-06 3.9675 0.225402 3.42585 0.676202 2.97505C1.127 2.52425 1.66827 2.29923 2.3 2.3H3.45V0H5.75V2.3H14.95V0H17.25V2.3H18.4C19.0325 2.3 19.5742 2.5254 20.025 2.9762C20.4757 3.427 20.7008 3.96827 20.7 4.6V20.7C20.7 21.3325 20.4746 21.8741 20.0238 22.3249C19.573 22.7757 19.0317 23.0008 18.4 23H2.3ZM2.3 20.7H18.4V9.2H2.3V20.7ZM2.3 6.9H18.4V4.6H2.3V6.9ZM10.35 13.8C10.0242 13.8 9.75085 13.6896 9.53005 13.4688C9.30925 13.248 9.19923 12.9751 9.2 12.65C9.2 12.3242 9.3104 12.0508 9.5312 11.83C9.752 11.6092 10.0249 11.4992 10.35 11.5C10.6758 11.5 10.9492 11.6104 11.17 11.8312C11.3908 12.052 11.5008 12.3249 11.5 12.65C11.5 12.9758 11.3896 13.2491 11.1688 13.4699C10.948 13.6907 10.6751 13.8008 10.35 13.8ZM5.75 13.8C5.42417 13.8 5.15085 13.6896 4.93005 13.4688C4.70925 13.248 4.59924 12.9751 4.6 12.65C4.6 12.3242 4.7104 12.0508 4.9312 11.83C5.152 11.6092 5.42493 11.4992 5.75 11.5C6.07583 11.5 6.34915 11.6104 6.56995 11.8312C6.79075 12.052 6.90077 12.3249 6.9 12.65C6.9 12.9758 6.7896 13.2491 6.5688 13.4699C6.348 13.6907 6.07507 13.8008 5.75 13.8ZM14.95 13.8C14.6242 13.8 14.3509 13.6896 14.13 13.4688C13.9093 13.248 13.7992 12.9751 13.8 12.65C13.8 12.3242 13.9104 12.0508 14.1312 11.83C14.352 11.6092 14.6249 11.4992 14.95 11.5C15.2758 11.5 15.5491 11.6104 15.7699 11.8312C15.9907 12.052 16.1008 12.3249 16.1 12.65C16.1 12.9758 15.9896 13.2491 15.7688 13.4699C15.548 13.6907 15.2751 13.8008 14.95 13.8ZM10.35 18.4C10.0242 18.4 9.75085 18.2896 9.53005 18.0688C9.30925 17.848 9.19923 17.5751 9.2 17.25C9.2 16.9242 9.3104 16.6508 9.5312 16.43C9.752 16.2092 10.0249 16.0992 10.35 16.1C10.6758 16.1 10.9492 16.2104 11.17 16.4312C11.3908 16.652 11.5008 16.9249 11.5 17.25C11.5 17.5758 11.3896 17.8491 11.1688 18.0699C10.948 18.2907 10.6751 18.4008 10.35 18.4ZM5.75 18.4C5.42417 18.4 5.15085 18.2896 4.93005 18.0688C4.70925 17.848 4.59924 17.5751 4.6 17.25C4.6 16.9242 4.7104 16.6508 4.9312 16.43C5.152 16.2092 5.42493 16.0992 5.75 16.1C6.07583 16.1 6.34915 16.2104 6.56995 16.4312C6.79075 16.652 6.90077 16.9249 6.9 17.25C6.9 17.5758 6.7896 17.8491 6.5688 18.0699C6.348 18.2907 6.07507 18.4008 5.75 18.4ZM14.95 18.4C14.6242 18.4 14.3509 18.2896 14.13 18.0688C13.9093 17.848 13.7992 17.5751 13.8 17.25C13.8 16.9242 13.9104 16.6508 14.1312 16.43C14.352 16.2092 14.6249 16.0992 14.95 16.1C15.2758 16.1 15.5491 16.2104 15.7699 16.4312C15.9907 16.652 16.1008 16.9249 16.1 17.25C16.1 17.5758 15.9896 17.8491 15.7688 18.0699C15.548 18.2907 15.2751 18.4008 14.95 18.4Z" fill="#DF4343"/>
</svg>
