<svg width="22" height="18" viewBox="0 0 22 18" fill="none" xmlns="http://www.w3.org/2000/svg">
<path d="M17.3052 9.03779C17.3052 9.28142 17.2085 9.51507 17.0362 9.68734C16.8639 9.85961 16.6303 9.9564 16.3866 9.9564C16.143 9.9564 15.9093 9.85961 15.7371 9.68734C15.5648 9.51507 15.468 9.28142 15.468 9.03779C15.468 8.79416 15.5648 8.56051 15.7371 8.38824C15.9093 8.21597 16.143 8.11919 16.3866 8.11919C16.6303 8.11919 16.8639 8.21597 17.0362 8.38824C17.2085 8.56051 17.3052 8.79416 17.3052 9.03779Z" fill="#DF4343"/>
<path fill-rule="evenodd" clip-rule="evenodd" d="M8.98635 1H11.845C13.5334 1 14.8709 1 15.9172 1.14055C16.9938 1.28569 17.8656 1.59066 18.5536 2.27778C19.4024 3.12749 19.6734 4.26472 19.7717 5.74092C20.3017 5.97333 20.7022 6.46662 20.7454 7.09127C20.75 7.1473 20.75 7.20701 20.75 7.26213V10.8135C20.75 10.8686 20.75 10.9283 20.7463 10.9834C20.7022 11.608 20.3017 12.1023 19.7717 12.3356C19.6734 13.8109 19.4024 14.9481 18.5536 15.7978C17.8656 16.4849 16.9938 16.7899 15.9172 16.935C14.87 17.0756 13.5334 17.0756 11.845 17.0756H8.98635C7.29795 17.0756 5.96047 17.0756 4.91417 16.935C3.83757 16.7899 2.96581 16.4849 2.27778 15.7978C1.59066 15.1098 1.28569 14.238 1.14055 13.1614C1 12.1142 1 10.7776 1 9.08923V8.98635C1 7.29795 1 5.96046 1.14055 4.91417C1.28569 3.83757 1.59066 2.96581 2.27778 2.27778C2.96581 1.59066 3.83757 1.28569 4.91417 1.14055C5.96138 1 7.29795 1 8.98635 1ZM18.3782 12.4826H16.5979C14.6275 12.4826 12.9409 10.9871 12.9409 9.03779C12.9409 7.08851 14.6275 5.59302 16.597 5.59302H18.3772C18.2725 4.36117 18.0364 3.70988 17.5781 3.25242C17.1895 2.86385 16.6567 2.63052 15.7326 2.50651C14.7892 2.37974 13.5445 2.37791 11.7927 2.37791H9.03687C7.28509 2.37791 6.0413 2.37974 5.09606 2.50651C4.17286 2.63052 3.64007 2.86385 3.2515 3.25242C2.86293 3.64099 2.6296 4.17378 2.50559 5.0979C2.37883 6.04222 2.37699 7.28601 2.37699 9.03779C2.37699 10.7896 2.37883 12.0334 2.50559 12.9786C2.6296 13.9018 2.86293 14.4346 3.2515 14.8232C3.64007 15.2117 4.17286 15.4451 5.09698 15.5691C6.0413 15.6958 7.28509 15.6977 9.03687 15.6977H11.7927C13.5445 15.6977 14.7892 15.6958 15.7335 15.5691C16.6567 15.4451 17.1895 15.2117 17.5781 14.8232C18.0364 14.3657 18.2734 13.7153 18.3782 12.4826ZM4.67442 5.36337C4.67442 5.18065 4.747 5.00541 4.87621 4.87621C5.00541 4.747 5.18065 4.67442 5.36337 4.67442H9.03779C9.22051 4.67442 9.39575 4.747 9.52495 4.87621C9.65416 5.00541 9.72674 5.18065 9.72674 5.36337C9.72674 5.54609 9.65416 5.72133 9.52495 5.85054C9.39575 5.97974 9.22051 6.05233 9.03779 6.05233H5.36337C5.18065 6.05233 5.00541 5.97974 4.87621 5.85054C4.747 5.72133 4.67442 5.54609 4.67442 5.36337ZM19.0726 6.97093H16.5979C15.2898 6.97093 14.3188 7.94373 14.3188 9.03779C14.3188 10.1318 15.2898 11.1047 16.597 11.1047H19.0938C19.283 11.0927 19.3647 10.965 19.3712 10.8879V7.18772C19.3647 7.11056 19.283 6.98287 19.0938 6.97185H19.0717L19.0726 6.97093Z" fill="#DF4343"/>
<path d="M17.3052 9.03779C17.3052 9.28142 17.2085 9.51507 17.0362 9.68734C16.8639 9.85961 16.6303 9.9564 16.3866 9.9564C16.143 9.9564 15.9093 9.85961 15.7371 9.68734C15.5648 9.51507 15.468 9.28142 15.468 9.03779C15.468 8.79416 15.5648 8.56051 15.7371 8.38824C15.9093 8.21597 16.143 8.11919 16.3866 8.11919C16.6303 8.11919 16.8639 8.21597 17.0362 8.38824C17.2085 8.56051 17.3052 8.79416 17.3052 9.03779Z" stroke="#DF4343" stroke-width="0.551163"/>
<path fill-rule="evenodd" clip-rule="evenodd" d="M8.98635 1H11.845C13.5334 1 14.8709 1 15.9172 1.14055C16.9938 1.28569 17.8656 1.59066 18.5536 2.27778C19.4024 3.12749 19.6734 4.26472 19.7717 5.74092C20.3017 5.97333 20.7022 6.46662 20.7454 7.09127C20.75 7.1473 20.75 7.20701 20.75 7.26213V10.8135C20.75 10.8686 20.75 10.9283 20.7463 10.9834C20.7022 11.608 20.3017 12.1023 19.7717 12.3356C19.6734 13.8109 19.4024 14.9481 18.5536 15.7978C17.8656 16.4849 16.9938 16.7899 15.9172 16.935C14.87 17.0756 13.5334 17.0756 11.845 17.0756H8.98635C7.29795 17.0756 5.96047 17.0756 4.91417 16.935C3.83757 16.7899 2.96581 16.4849 2.27778 15.7978C1.59066 15.1098 1.28569 14.238 1.14055 13.1614C1 12.1142 1 10.7776 1 9.08923V8.98635C1 7.29795 1 5.96046 1.14055 4.91417C1.28569 3.83757 1.59066 2.96581 2.27778 2.27778C2.96581 1.59066 3.83757 1.28569 4.91417 1.14055C5.96138 1 7.29795 1 8.98635 1ZM18.3782 12.4826H16.5979C14.6275 12.4826 12.9409 10.9871 12.9409 9.03779C12.9409 7.08851 14.6275 5.59302 16.597 5.59302H18.3772C18.2725 4.36117 18.0364 3.70988 17.5781 3.25242C17.1895 2.86385 16.6567 2.63052 15.7326 2.50651C14.7892 2.37974 13.5445 2.37791 11.7927 2.37791H9.03687C7.28509 2.37791 6.0413 2.37974 5.09606 2.50651C4.17286 2.63052 3.64007 2.86385 3.2515 3.25242C2.86293 3.64099 2.6296 4.17378 2.50559 5.0979C2.37883 6.04222 2.37699 7.28601 2.37699 9.03779C2.37699 10.7896 2.37883 12.0334 2.50559 12.9786C2.6296 13.9018 2.86293 14.4346 3.2515 14.8232C3.64007 15.2117 4.17286 15.4451 5.09698 15.5691C6.0413 15.6958 7.28509 15.6977 9.03687 15.6977H11.7927C13.5445 15.6977 14.7892 15.6958 15.7335 15.5691C16.6567 15.4451 17.1895 15.2117 17.5781 14.8232C18.0364 14.3657 18.2734 13.7153 18.3782 12.4826ZM4.67442 5.36337C4.67442 5.18065 4.747 5.00541 4.87621 4.87621C5.00541 4.747 5.18065 4.67442 5.36337 4.67442H9.03779C9.22051 4.67442 9.39575 4.747 9.52495 4.87621C9.65416 5.00541 9.72674 5.18065 9.72674 5.36337C9.72674 5.54609 9.65416 5.72133 9.52495 5.85054C9.39575 5.97974 9.22051 6.05233 9.03779 6.05233H5.36337C5.18065 6.05233 5.00541 5.97974 4.87621 5.85054C4.747 5.72133 4.67442 5.54609 4.67442 5.36337ZM19.0726 6.97093H16.5979C15.2898 6.97093 14.3188 7.94373 14.3188 9.03779C14.3188 10.1318 15.2898 11.1047 16.597 11.1047H19.0938C19.283 11.0927 19.3647 10.965 19.3712 10.8879V7.18772C19.3647 7.11056 19.283 6.98287 19.0938 6.97185H19.0717L19.0726 6.97093Z" stroke="#DF4343" stroke-width="0.551163"/>
</svg>
