<svg width="32" height="24" viewBox="0 0 32 24" fill="none" xmlns="http://www.w3.org/2000/svg">
<path d="M12.8 16.9502L21.104 12.1502L12.8 7.3502V16.9502ZM31.296 4.4222C31.504 5.1742 31.648 6.18219 31.744 7.46219C31.856 8.7422 31.904 9.8462 31.904 10.8062L32 12.1502C32 15.6542 31.744 18.2302 31.296 19.8782C30.896 21.3182 29.968 22.2462 28.528 22.6462C27.776 22.8542 26.4 22.9982 24.288 23.0942C22.208 23.2062 20.304 23.2542 18.544 23.2542L16 23.3502C9.296 23.3502 5.12 23.0942 3.472 22.6462C2.032 22.2462 1.104 21.3182 0.704 19.8782C0.496 19.1262 0.352 18.1182 0.256 16.8382C0.144 15.5582 0.0959999 14.4542 0.0959999 13.4942L0 12.1502C0 8.6462 0.256 6.0702 0.704 4.4222C1.104 2.9822 2.032 2.0542 3.472 1.6542C4.224 1.4462 5.6 1.3022 7.712 1.2062C9.792 1.0942 11.696 1.0462 13.456 1.0462L16 0.950195C22.704 0.950195 26.88 1.2062 28.528 1.6542C29.968 2.0542 30.896 2.9822 31.296 4.4222Z" fill="#DF4343"/>
</svg>
