<svg width="22" height="27" viewBox="0 0 22 27" fill="none" xmlns="http://www.w3.org/2000/svg">
<path d="M10.7273 6.45455C9.87326 6.45455 9.03839 6.7078 8.32827 7.18229C7.61814 7.65678 7.06467 8.33119 6.73784 9.12023C6.41101 9.90928 6.32549 10.7775 6.49211 11.6152C6.65873 12.4528 7.06999 13.2222 7.6739 13.8261C8.27781 14.4301 9.04724 14.8413 9.88488 15.0079C10.7225 15.1746 11.5908 15.089 12.3798 14.7622C13.1689 14.4354 13.8433 13.8819 14.3178 13.1718C14.7922 12.4617 15.0455 11.6268 15.0455 10.7727C15.0455 9.62747 14.5906 8.52913 13.7807 7.71931C12.9709 6.9095 11.8726 6.45455 10.7273 6.45455ZM10.7273 13.7273C10.143 13.7273 9.57173 13.554 9.08586 13.2293C8.59999 12.9047 8.2213 12.4433 7.99767 11.9034C7.77405 11.3635 7.71554 10.7695 7.82954 10.1963C7.94355 9.6232 8.22494 9.09675 8.63814 8.68355C9.05134 8.27035 9.57779 7.98895 10.1509 7.87495C10.724 7.76095 11.3181 7.81946 11.858 8.04308C12.3978 8.26671 12.8593 8.6454 13.1839 9.13127C13.5086 9.61714 13.6819 10.1884 13.6819 10.7727C13.6789 11.5554 13.3666 12.3052 12.8132 12.8586C12.2598 13.412 11.51 13.7243 10.7273 13.7273ZM10.7273 1C8.13635 1.00301 5.65237 2.0336 3.82028 3.86569C1.98819 5.69778 0.957597 8.18176 0.95459 10.7727C0.95459 14.2841 2.59095 18.0114 5.6705 21.5568C7.05923 23.168 8.62604 24.6166 10.341 25.875C10.4541 25.9549 10.5888 25.9985 10.7273 26C10.869 25.9968 11.0069 25.9534 11.125 25.875C12.8321 24.6113 14.3946 23.1631 15.7841 21.5568C18.875 18.0114 20.5 14.2841 20.5 10.7727C20.497 8.18176 19.4664 5.69778 17.6344 3.86569C15.8023 2.0336 13.3183 1.00301 10.7273 1ZM10.7273 24.4659C9.02277 23.1477 2.31823 17.5455 2.31823 10.7727C2.31823 8.5425 3.20418 6.40361 4.78119 4.8266C6.3582 3.24959 8.49709 2.36364 10.7273 2.36364C12.9575 2.36364 15.0964 3.24959 16.6734 4.8266C18.2505 6.40361 19.1364 8.5425 19.1364 10.7727C19.1364 17.5455 12.4319 23.1477 10.7273 24.4659Z" fill="#DF4343" stroke="#DF4343" stroke-width="1.25"/>
</svg>
