<svg width="24" height="25" viewBox="0 0 24 25" fill="none" xmlns="http://www.w3.org/2000/svg">
<mask id="path-1-inside-1_309_721" fill="white">
<path d="M12.1565 0C11.5555 0 10.9583 0.202825 10.4437 0.570913L8.85119 1.68269L7.01825 1.92308H6.98821L6.95816 1.95312C5.7337 2.22731 4.7684 3.19261 4.49422 4.41707L4.46417 4.44712V4.47716L4.22378 6.34014L3.112 7.78245L3.08196 7.8125V7.84255C2.40963 8.91677 2.37958 10.3027 3.112 11.3281L4.25383 12.9207L4.55431 14.5733L1.45936 19.2909L0.467773 20.7632H5.06513L6.17691 23.3474L6.86801 25L7.8596 23.4976L10.8945 18.9303C11.7095 19.2646 12.6297 19.2946 13.4185 18.9303L16.4534 23.4976L17.4449 25L18.136 23.3474L19.2478 20.7632H23.8452L22.8536 19.2909L19.8488 14.7236L20.0892 12.9207L21.2009 11.3281L21.231 11.2981V11.268C21.9033 10.1938 21.9334 8.83789 21.2009 7.8125L20.0892 6.21995L19.7286 4.41707H19.7586C19.7549 4.39453 19.7323 4.37951 19.7286 4.35697C19.5558 3.09871 18.5605 2.07707 17.2947 1.92308H17.2646L15.4618 1.68269L13.8692 0.570913C13.3546 0.202825 12.7574 0 12.1565 0ZM12.1565 1.95312C12.3781 1.95312 12.5959 2.02073 12.7574 2.13341L14.4702 3.36538L14.6805 3.51562L14.9209 3.54567L17.0243 3.84615H17.0543C17.4863 3.89498 17.7867 4.19546 17.8356 4.6274V4.6875L18.2262 6.82091L18.2562 7.03125L18.4065 7.21154L19.6384 8.92428C19.8676 9.24354 19.8976 9.7844 19.6084 10.2464L18.2562 12.1394L18.2262 12.3798L17.9257 14.4832V14.5132C17.9069 14.671 17.8543 14.8175 17.7755 14.9339L17.7154 14.9639V14.994C17.5764 15.1593 17.3848 15.2682 17.1445 15.2945H17.0844L14.8909 15.6851L14.6505 15.7151L14.4702 15.8654L12.7574 17.0974C12.4382 17.3265 11.8673 17.3565 11.4053 17.0673L9.84277 15.8654L9.66249 15.7151L9.39205 15.6851L7.28869 15.3846H7.25864C6.96191 15.3508 6.7328 15.1968 6.59758 14.9639C6.53748 14.8588 6.49241 14.7348 6.47739 14.6034V14.5433L6.08676 12.3498L6.05672 12.1094L5.90648 11.9291L4.6745 10.2163C4.44539 9.89709 4.41534 9.32617 4.70455 8.86418L5.90648 7.30168L6.05672 7.12139L6.08676 6.85096L6.3572 4.83774C6.36095 4.82272 6.38349 4.82272 6.38724 4.80769C6.50744 4.33819 6.87928 3.96635 7.34878 3.84615C7.36381 3.8424 7.36381 3.81986 7.37883 3.81611L9.39205 3.54567L9.63244 3.51562L9.84277 3.36538L11.5555 2.13341C11.717 2.02073 11.9349 1.95312 12.1565 1.95312ZM18.7971 16.5865L20.2695 18.8401H17.9558L17.7154 19.4411L17.0543 20.9736L15.011 17.8486L15.4618 17.518L17.3548 17.1875V17.2175C17.3773 17.2138 17.3924 17.1913 17.4149 17.1875C17.9332 17.1161 18.4027 16.8983 18.7971 16.5865ZM5.51585 16.6166C5.92525 16.9847 6.44734 17.2401 7.01825 17.3077C7.02952 17.3077 7.03703 17.3077 7.0483 17.3077L8.88124 17.5481L9.30191 17.8786L7.25864 20.9736L6.59758 19.4411L6.3572 18.8401H4.04349L5.51585 16.6166Z"/>
</mask>
<path d="M12.1565 0C11.5555 0 10.9583 0.202825 10.4437 0.570913L8.85119 1.68269L7.01825 1.92308H6.98821L6.95816 1.95312C5.7337 2.22731 4.7684 3.19261 4.49422 4.41707L4.46417 4.44712V4.47716L4.22378 6.34014L3.112 7.78245L3.08196 7.8125V7.84255C2.40963 8.91677 2.37958 10.3027 3.112 11.3281L4.25383 12.9207L4.55431 14.5733L1.45936 19.2909L0.467773 20.7632H5.06513L6.17691 23.3474L6.86801 25L7.8596 23.4976L10.8945 18.9303C11.7095 19.2646 12.6297 19.2946 13.4185 18.9303L16.4534 23.4976L17.4449 25L18.136 23.3474L19.2478 20.7632H23.8452L22.8536 19.2909L19.8488 14.7236L20.0892 12.9207L21.2009 11.3281L21.231 11.2981V11.268C21.9033 10.1938 21.9334 8.83789 21.2009 7.8125L20.0892 6.21995L19.7286 4.41707H19.7586C19.7549 4.39453 19.7323 4.37951 19.7286 4.35697C19.5558 3.09871 18.5605 2.07707 17.2947 1.92308H17.2646L15.4618 1.68269L13.8692 0.570913C13.3546 0.202825 12.7574 0 12.1565 0ZM12.1565 1.95312C12.3781 1.95312 12.5959 2.02073 12.7574 2.13341L14.4702 3.36538L14.6805 3.51562L14.9209 3.54567L17.0243 3.84615H17.0543C17.4863 3.89498 17.7867 4.19546 17.8356 4.6274V4.6875L18.2262 6.82091L18.2562 7.03125L18.4065 7.21154L19.6384 8.92428C19.8676 9.24354 19.8976 9.7844 19.6084 10.2464L18.2562 12.1394L18.2262 12.3798L17.9257 14.4832V14.5132C17.9069 14.671 17.8543 14.8175 17.7755 14.9339L17.7154 14.9639V14.994C17.5764 15.1593 17.3848 15.2682 17.1445 15.2945H17.0844L14.8909 15.6851L14.6505 15.7151L14.4702 15.8654L12.7574 17.0974C12.4382 17.3265 11.8673 17.3565 11.4053 17.0673L9.84277 15.8654L9.66249 15.7151L9.39205 15.6851L7.28869 15.3846H7.25864C6.96191 15.3508 6.7328 15.1968 6.59758 14.9639C6.53748 14.8588 6.49241 14.7348 6.47739 14.6034V14.5433L6.08676 12.3498L6.05672 12.1094L5.90648 11.9291L4.6745 10.2163C4.44539 9.89709 4.41534 9.32617 4.70455 8.86418L5.90648 7.30168L6.05672 7.12139L6.08676 6.85096L6.3572 4.83774C6.36095 4.82272 6.38349 4.82272 6.38724 4.80769C6.50744 4.33819 6.87928 3.96635 7.34878 3.84615C7.36381 3.8424 7.36381 3.81986 7.37883 3.81611L9.39205 3.54567L9.63244 3.51562L9.84277 3.36538L11.5555 2.13341C11.717 2.02073 11.9349 1.95312 12.1565 1.95312ZM18.7971 16.5865L20.2695 18.8401H17.9558L17.7154 19.4411L17.0543 20.9736L15.011 17.8486L15.4618 17.518L17.3548 17.1875V17.2175C17.3773 17.2138 17.3924 17.1913 17.4149 17.1875C17.9332 17.1161 18.4027 16.8983 18.7971 16.5865ZM5.51585 16.6166C5.92525 16.9847 6.44734 17.2401 7.01825 17.3077C7.02952 17.3077 7.03703 17.3077 7.0483 17.3077L8.88124 17.5481L9.30191 17.8786L7.25864 20.9736L6.59758 19.4411L6.3572 18.8401H4.04349L5.51585 16.6166Z" fill="#DF4343" stroke="#DF4343" stroke-width="0.6" mask="url(#path-1-inside-1_309_721)"/>
</svg>
