<svg width="32" height="20" viewBox="0 0 32 20" fill="none" xmlns="http://www.w3.org/2000/svg">
<path d="M31.2672 1.74554C31.4905 1.00386 31.2672 0.459961 30.2113 0.459961H26.7134C25.8234 0.459961 25.4167 0.930488 25.1934 1.44727C25.1934 1.44727 23.415 5.78409 20.8949 8.59608C20.0814 9.41432 19.7098 9.67271 19.2664 9.67271C19.0447 9.67271 18.7225 9.41432 18.7225 8.67264V1.74554C18.7225 0.855523 18.4657 0.459961 17.724 0.459961H12.2276C11.6725 0.459961 11.3376 0.871473 11.3376 1.26384C11.3376 2.10601 12.5976 2.3006 12.7268 4.67396V9.82264C12.7268 10.9503 12.5243 11.1561 12.0777 11.1561C10.8926 11.1561 8.00882 6.8033 6.29737 1.8205C5.96402 0.852333 5.62747 0.461557 4.73427 0.461557H1.23802C0.23795 0.461557 0.0385742 0.932083 0.0385742 1.44886C0.0385742 2.37716 1.22366 6.97077 5.55889 13.0461C8.44904 17.1948 12.5179 19.4437 16.2247 19.4437C18.4465 19.4437 18.7209 18.9445 18.7209 18.0832V14.9474C18.7209 13.9489 18.933 13.748 19.6364 13.748C20.1532 13.748 21.0432 14.0095 23.1183 16.0081C25.4885 18.3783 25.8808 19.4421 27.2127 19.4421H30.7089C31.7074 19.4421 32.2066 18.9429 31.9195 17.9572C31.6053 16.9762 30.4729 15.5487 28.9704 13.8596C28.1537 12.8962 26.9336 11.8595 26.5619 11.3411C26.0435 10.6728 26.1935 10.3777 26.5619 9.78436C26.5619 9.78436 30.8238 3.78555 31.2672 1.74554Z" fill="#4E7CB1"/>
</svg>
